<svg width="165" height="165" viewBox="0 0 165 165" fill="none" xmlns="http://www.w3.org/2000/svg">
<path d="M35.6796 94.2153H35.2803V93.9513H35.4123V93.8193H35.6796V94.2153Z" fill="#EBEBEB"/>
<path d="M34.7521 94.2152H34.2241V93.9512H34.7521V94.2152ZM33.6961 94.2152H33.1681V93.9512H33.6961V94.2152ZM32.6368 94.2152H32.1088V93.9512H32.6368V94.2152ZM31.5808 94.2152H31.0528V93.9512H31.5808V94.2152ZM30.5248 94.2152H29.9935V93.9512H30.5248V94.2152ZM29.4655 94.2152H28.9375V93.9512H29.4655V94.2152ZM28.4095 94.2152H27.8815V93.9512H28.4095V94.2152ZM27.3502 94.2152H26.8222V93.9512H27.3502V94.2152ZM26.2942 94.2152H25.7662V93.9512H26.2942V94.2152ZM25.2383 94.2152H24.7069V93.9512H25.2383V94.2152ZM24.1789 94.2152H23.6509V93.9512H24.1789V94.2152ZM23.1229 94.2152H22.5949V93.9512H23.1229V94.2152ZM22.0636 94.2152H21.5356V93.9512H22.0636V94.2152ZM21.0076 94.2152H20.4796V93.9512H21.0076V94.2152ZM19.9516 94.2152H19.4203V93.9512H19.9516V94.2152ZM18.8923 94.2152H18.3643V93.9512H18.8923V94.2152ZM17.8363 94.2152H17.3083V93.9512H17.8363V94.2152Z" fill="#EBEBEB"/>
<path d="M16.7771 94.2153H16.3811V93.8193H16.6451V93.9513H16.7771V94.2153Z" fill="#EBEBEB"/>
<path d="M16.6451 93.2909H16.3811V92.7629H16.6451V93.2909ZM16.6451 92.2315H16.3811V91.7036H16.6451V92.2315ZM16.6451 91.1756H16.3811V90.6476H16.6451V91.1756ZM16.6451 90.1195H16.3811V89.5883H16.6451V90.1195ZM16.6451 89.0603H16.3811V88.5322H16.6451V89.0603ZM16.6451 88.0042H16.3811V87.4762H16.6451V88.0042ZM16.6451 86.945H16.3811V86.4169H16.6451V86.945ZM16.6451 85.8889H16.3811V85.361H16.6451V85.8889ZM16.6451 84.833H16.3811V84.3017H16.6451V84.833ZM16.6451 83.7736H16.3811V83.2456H16.6451V83.7736ZM16.6451 82.7177H16.3811V82.1896H16.6451V82.7177ZM16.6451 81.6583H16.3811V81.1304H16.6451V81.6583ZM16.6451 80.6023H16.3811V80.0743H16.6451V80.6023ZM16.6451 79.5464H16.3811V79.0151H16.6451V79.5464ZM16.6451 78.487H16.3811V77.9591H16.6451V78.487ZM16.6451 77.431H16.3811V76.8898H16.6451V77.431ZM16.6451 76.3717H16.3811V75.8438H16.6451V76.3717Z" fill="#EBEBEB"/>
<path d="M16.6451 75.3159H16.3811V74.9199H16.7771V75.1839H16.6451V75.3159Z" fill="#EBEBEB"/>
<path d="M34.7521 75.1841H34.2241V74.9102H34.7521V75.1841ZM33.6961 75.1841H33.1681V74.9102H33.6961V75.1841ZM32.6368 75.1841H32.1088V74.9102H32.6368V75.1841ZM31.5808 75.1841H31.0528V74.9102H31.5808V75.1841ZM30.5248 75.1841H29.9935V74.9102H30.5248V75.1841ZM29.4655 75.1841H28.9375V74.9102H29.4655V75.1841ZM28.4095 75.1841H27.8815V74.9102H28.4095V75.1841ZM27.3502 75.1841H26.8222V74.9102H27.3502V75.1841ZM26.2942 75.1841H25.7662V74.9102H26.2942V75.1841ZM25.2383 75.1841H24.7069V74.9102H25.2383V75.1841ZM24.1789 75.1841H23.6509V74.9102H24.1789V75.1841ZM23.1229 75.1841H22.5949V74.9102H23.1229V75.1841ZM22.0636 75.1841H21.5356V74.9102H22.0636V75.1841ZM21.0076 75.1841H20.4796V74.9102H21.0076V75.1841ZM19.9516 75.1841H19.4203V74.9102H19.9516V75.1841ZM18.8923 75.1841H18.3643V74.9102H18.8923V75.1841ZM17.8363 75.1841H17.3083V74.9102H17.8363V75.1841Z" fill="#EBEBEB"/>
<path d="M35.6796 75.3159H35.4123V75.1839H35.2803V74.9199H35.6796V75.3159Z" fill="#EBEBEB"/>
<path d="M35.6794 93.2909H35.4121V92.7629H35.6794V93.2909ZM35.6794 92.2315H35.4121V91.7036H35.6794V92.2315ZM35.6794 91.1756H35.4121V90.6476H35.6794V91.1756ZM35.6794 90.1195H35.4121V89.5883H35.6794V90.1195ZM35.6794 89.0603H35.4121V88.5322H35.6794V89.0603ZM35.6794 88.0042H35.4121V87.4762H35.6794V88.0042ZM35.6794 86.945H35.4121V86.4169H35.6794V86.945ZM35.6794 85.8889H35.4121V85.361H35.6794V85.8889ZM35.6794 84.833H35.4121V84.3017H35.6794V84.833ZM35.6794 83.7736H35.4121V83.2456H35.6794V83.7736ZM35.6794 82.7177H35.4121V82.1896H35.6794V82.7177ZM35.6794 81.6583H35.4121V81.1304H35.6794V81.6583ZM35.6794 80.6023H35.4121V80.0743H35.6794V80.6023ZM35.6794 79.5464H35.4121V79.0151H35.6794V79.5464ZM35.6794 78.487H35.4121V77.9591H35.6794V78.487ZM35.6794 77.431H35.4121V76.8898H35.6794V77.431ZM35.6794 76.3751H35.4121V75.8438H35.6794V76.3751Z" fill="#EBEBEB"/>
<path d="M17.7011 92.8984H15.3284V95.2711H17.7011V92.8984Z" fill="white"/>
<path d="M17.8199 95.3998H15.1799V92.7598H17.8199V95.3998ZM15.4472 95.1358H17.5559V93.0304H15.4604L15.4472 95.1358Z" fill="#EBEBEB"/>
<path d="M17.7111 83.3809H15.3384V85.7536H17.7111V83.3809Z" fill="white"/>
<path d="M17.8199 85.8861H15.1799V83.2461H17.8199V85.8861ZM15.4472 85.6221H17.5559V83.5134H15.4604L15.4472 85.6221Z" fill="#EBEBEB"/>
<path d="M17.7111 73.8672H15.3384V76.2399H17.7111V73.8672Z" fill="white"/>
<path d="M17.8199 76.3685H15.1799V73.7285H17.8199V76.3685ZM15.4472 76.1045H17.5559V73.9991H15.4604L15.4472 76.1045Z" fill="#EBEBEB"/>
<path d="M36.7421 92.8984H34.3694V95.2711H36.7421V92.8984Z" fill="white"/>
<path d="M36.8641 95.3998H34.2241V92.7598H36.8641V95.3998ZM34.4914 95.1358H36.6001V93.0304H34.4914V95.1358Z" fill="#EBEBEB"/>
<path d="M36.7421 83.3809H34.3694V85.7536H36.7421V83.3809Z" fill="white"/>
<path d="M36.8641 85.8861H34.2241V83.2461H36.8641V85.8861ZM34.4914 85.6221H36.6001V83.5134H34.4914V85.6221Z" fill="#EBEBEB"/>
<path d="M36.7421 73.8672H34.3694V76.2399H36.7421V73.8672Z" fill="white"/>
<path d="M36.8641 76.3685H34.2241V73.7285H36.8641V76.3685ZM34.4914 76.1045H36.6001V73.9991H34.4914V76.1045Z" fill="#EBEBEB"/>
<path d="M27.2282 73.8672H24.8555V76.2399H27.2282V73.8672Z" fill="white"/>
<path d="M27.347 76.3685H24.707V73.7285H27.347V76.3685ZM24.9776 76.1045H27.083V73.9991H24.9776V76.1045Z" fill="#EBEBEB"/>
<path d="M27.2184 92.8984H24.8457V95.2711H27.2184V92.8984Z" fill="white"/>
<path d="M27.347 95.3998H24.707V92.7598H27.347V95.3998ZM24.9776 95.1358H27.083V93.0304H24.9776V95.1358Z" fill="#EBEBEB"/>
<path d="M149.671 53.7372H149.275V53.4699H149.407V53.3379H149.671V53.7372Z" fill="#EBEBEB"/>
<path d="M148.747 53.7372H148.216V53.46H148.747V53.7372ZM147.688 53.7372H147.16V53.46H147.688V53.7372ZM146.632 53.7372H146.104V53.46H146.632V53.7372ZM145.573 53.7372H145.045V53.46H145.573V53.7372ZM144.517 53.7372H143.989V53.46H144.517V53.7372ZM143.461 53.7372H142.929V53.46H143.461V53.7372ZM142.401 53.7372H141.873V53.46H142.401V53.7372ZM141.345 53.7372H140.817V53.46H141.345V53.7372ZM140.286 53.7372H139.758V53.46H140.286V53.7372ZM139.23 53.7372H138.702V53.46H139.23V53.7372ZM138.174 53.7372H137.643V53.46H138.174V53.7372ZM137.115 53.7372H136.587V53.46H137.115V53.7372ZM136.059 53.7372H135.531V53.46H136.059V53.7372ZM135 53.7372H134.472V53.46H135V53.7372ZM133.944 53.7372H133.416V53.46H133.944V53.7372ZM132.888 53.7372H132.356V53.46H132.888V53.7372ZM131.828 53.7372H131.3V53.46H131.828V53.7372Z" fill="#EBEBEB"/>
<path d="M130.772 53.7372H130.376V53.3379H130.64V53.4699H130.772V53.7372Z" fill="#EBEBEB"/>
<path d="M130.64 52.8002H130.376V52.2722H130.64V52.8002ZM130.64 51.7442H130.376V51.2162H130.64V51.7442ZM130.64 50.6849H130.376V50.1602H130.64V50.6849ZM130.64 49.6289H130.376V49.1009H130.64V49.6289ZM130.64 48.5729H130.376V48.0416H130.64V48.5729ZM130.64 47.5136H130.376V46.9856H130.64V47.5136ZM130.64 46.4576H130.376V45.9296H130.64V46.4576ZM130.64 45.3983H130.376V44.8802H130.64V45.3983ZM130.64 44.3423H130.376V43.8143H130.64V44.3423ZM130.64 43.2863H130.376V42.755H130.64V43.2863ZM130.64 42.227H130.376V41.699H130.64V42.227ZM130.64 41.171H130.376V40.643H130.64V41.171ZM130.64 40.115H130.376V39.6002H130.64V40.115ZM130.64 39.0557H130.376V38.5277H130.64V39.0557ZM130.64 37.9997H130.376V37.4717H130.64V37.9997ZM130.64 36.9404H130.376V36.4124H130.64V36.9404ZM130.64 35.8844H130.376V35.3564H130.64V35.8844Z" fill="#EBEBEB"/>
<path d="M130.64 34.8378H130.376V34.4385H130.772V34.7058H130.64V34.8378Z" fill="#EBEBEB"/>
<path d="M148.747 34.7025H148.216V34.4385H148.747V34.7025ZM147.688 34.7025H147.16V34.4385H147.688V34.7025ZM146.632 34.7025H146.104V34.4385H146.632V34.7025ZM145.573 34.7025H145.045V34.4385H145.573V34.7025ZM144.517 34.7025H143.989V34.4385H144.517V34.7025ZM143.461 34.7025H142.929V34.4385H143.461V34.7025ZM142.401 34.7025H141.873V34.4385H142.401V34.7025ZM141.345 34.7025H140.817V34.4385H141.345V34.7025ZM140.286 34.7025H139.758V34.4385H140.286V34.7025ZM139.23 34.7025H138.702V34.4385H139.23V34.7025ZM138.174 34.7025H137.643V34.4385H138.174V34.7025ZM137.115 34.7025H136.587V34.4385H137.115V34.7025ZM136.059 34.7025H135.531V34.4385H136.059V34.7025ZM135 34.7025H134.472V34.4385H135V34.7025ZM133.944 34.7025H133.416V34.4385H133.944V34.7025ZM132.888 34.7025H132.356V34.4385H132.888V34.7025ZM131.828 34.7025H131.3V34.4385H131.828V34.7025Z" fill="#EBEBEB"/>
<path d="M149.671 34.8378H149.407V34.7058H149.275V34.4385H149.671V34.8378Z" fill="#EBEBEB"/>
<path d="M149.671 52.8002H149.407V52.2722H149.671V52.8002ZM149.671 51.7442H149.407V51.2162H149.671V51.7442ZM149.671 50.6849H149.407V50.1602H149.671V50.6849ZM149.671 49.6289H149.407V49.1009H149.671V49.6289ZM149.671 48.5729H149.407V48.0416H149.671V48.5729ZM149.671 47.5136H149.407V46.9856H149.671V47.5136ZM149.671 46.4576H149.407V45.9296H149.671V46.4576ZM149.671 45.3983H149.407V44.8802H149.671V45.3983ZM149.671 44.3423H149.407V43.8143H149.671V44.3423ZM149.671 43.2863H149.407V42.755H149.671V43.2863ZM149.671 42.227H149.407V41.699H149.671V42.227ZM149.671 41.171H149.407V40.643H149.671V41.171ZM149.671 40.115H149.407V39.6002H149.671V40.115ZM149.671 39.0557H149.407V38.5277H149.671V39.0557ZM149.671 37.9997H149.407V37.4717H149.671V37.9997ZM149.671 36.9404H149.407V36.4124H149.671V36.9404ZM149.671 35.8844H149.407V35.3564H149.671V35.8844Z" fill="#EBEBEB"/>
<path d="M131.693 52.417H129.32V54.7897H131.693V52.417Z" fill="white"/>
<path d="M131.825 54.9222H129.185V52.2822H131.825V54.9222ZM129.452 54.6582H131.561V52.5495H129.452V54.6582Z" fill="#EBEBEB"/>
<path d="M131.703 42.9033H129.33V45.276H131.703V42.9033Z" fill="white"/>
<path d="M131.825 45.4046H129.185V42.7646H131.825V45.4046ZM129.452 45.1406H131.561V43.0353H129.452V45.1406Z" fill="#EBEBEB"/>
<path d="M131.703 33.3857H129.33V35.7584H131.703V33.3857Z" fill="white"/>
<path d="M131.825 35.891H129.185V33.251H131.825V35.891ZM129.452 35.627H131.561V33.5183H129.452V35.627Z" fill="#EBEBEB"/>
<path d="M150.737 52.417H148.365V54.7897H150.737V52.417Z" fill="white"/>
<path d="M150.856 54.9222H148.216V52.2822H150.856V54.9222ZM148.487 54.6582H150.592V52.5495H148.5L148.487 54.6582Z" fill="#EBEBEB"/>
<path d="M150.737 42.9033H148.365V45.276H150.737V42.9033Z" fill="white"/>
<path d="M150.856 45.4046H148.216V42.7646H150.856V45.4046ZM148.487 45.1406H150.592V43.0353H148.5L148.487 45.1406Z" fill="#EBEBEB"/>
<path d="M150.737 33.3857H148.365V35.7584H150.737V33.3857Z" fill="white"/>
<path d="M150.856 35.891H148.216V33.251H150.856V35.891ZM148.5 35.6402H150.605V33.5315H148.5V35.6402Z" fill="#EBEBEB"/>
<path d="M141.22 33.3857H138.847V35.7584H141.22V33.3857Z" fill="white"/>
<path d="M141.342 35.891H138.702V33.251H141.342V35.891ZM138.969 35.627H141.078V33.5183H138.969V35.627Z" fill="#EBEBEB"/>
<path d="M141.21 52.417H138.838V54.7897H141.21V52.417Z" fill="white"/>
<path d="M141.342 54.9222H138.702V52.2822H141.342V54.9222ZM138.969 54.6582H141.078V52.5495H138.969V54.6582Z" fill="#EBEBEB"/>
<path d="M61.1555 40.6098H19.3643V12.0186H61.1555V40.6098ZM19.6943 40.2798H60.8255V12.3486H19.6943V40.2798Z" fill="#EBEBEB"/>
<path d="M22.6312 13.8599C22.6312 14.0244 22.5824 14.1852 22.4911 14.3219C22.3997 14.4587 22.2698 14.5653 22.1179 14.6282C21.9659 14.6912 21.7987 14.7076 21.6374 14.6755C21.4761 14.6435 21.3279 14.5643 21.2116 14.448C21.0953 14.3316 21.0161 14.1835 20.984 14.0222C20.9519 13.8608 20.9684 13.6936 21.0313 13.5417C21.0943 13.3897 21.2009 13.2598 21.3376 13.1685C21.4744 13.0771 21.6351 13.0283 21.7996 13.0283C22.0202 13.0283 22.2317 13.1159 22.3876 13.2719C22.5436 13.4278 22.6312 13.6394 22.6312 13.8599Z" fill="#A6A6A6"/>
<path d="M26.027 13.8599C26.027 14.0244 25.9782 14.1852 25.8868 14.3219C25.7954 14.4587 25.6656 14.5653 25.5136 14.6282C25.3617 14.6912 25.1944 14.7076 25.0331 14.6755C24.8718 14.6435 24.7236 14.5643 24.6073 14.448C24.491 14.3316 24.4118 14.1835 24.3797 14.0222C24.3477 13.8608 24.3641 13.6936 24.4271 13.5417C24.49 13.3897 24.5966 13.2598 24.7334 13.1685C24.8701 13.0771 25.0309 13.0283 25.1954 13.0283C25.4159 13.0283 25.6274 13.1159 25.7834 13.2719C25.9394 13.4278 26.027 13.6394 26.027 13.8599Z" fill="#EBEBEB"/>
<path d="M29.4261 13.8599C29.4261 14.0244 29.3774 14.1852 29.286 14.3219C29.1946 14.4587 29.0647 14.5653 28.9128 14.6282C28.7608 14.6912 28.5936 14.7076 28.4323 14.6755C28.271 14.6435 28.1228 14.5643 28.0065 14.448C27.8902 14.3316 27.811 14.1835 27.7789 14.0222C27.7468 13.8608 27.7633 13.6936 27.8262 13.5417C27.8892 13.3897 27.9958 13.2598 28.1325 13.1685C28.2693 13.0771 28.4301 13.0283 28.5945 13.0283C28.8151 13.0283 29.0266 13.1159 29.1826 13.2719C29.3385 13.4278 29.4261 13.6394 29.4261 13.8599Z" fill="#526EEB"/>
<path d="M60.9905 15.3252H19.5293V15.6552H60.9905V15.3252Z" fill="#EBEBEB"/>
<path d="M18.1103 67.8746C18.2222 67.805 18.3514 67.7681 18.4832 67.7681C18.615 67.7681 18.7442 67.805 18.8561 67.8746L19.0442 67.9802L19.2422 68.0825C19.3612 68.1364 19.4628 68.2224 19.5357 68.3308C19.6086 68.4392 19.6498 68.5658 19.6547 68.6963L19.6844 69.6071L22.6544 69.5147L22.6247 68.6039C22.6258 68.4754 22.6617 68.3496 22.7285 68.2398C22.7953 68.13 22.8906 68.0403 23.0042 67.9802C23.1349 67.9103 23.2616 67.8332 23.3837 67.7492C23.4901 67.673 23.6156 67.6279 23.7462 67.6192C23.8768 67.6104 24.0073 67.6383 24.1229 67.6997L24.9248 68.132L26.3339 65.492L25.5287 65.063C25.4142 64.9997 25.3192 64.9063 25.254 64.7929C25.1889 64.6794 25.156 64.5503 25.1591 64.4195C25.1673 64.2722 25.1673 64.1246 25.1591 63.9773C25.1479 63.8476 25.1728 63.7173 25.231 63.6008C25.2893 63.4843 25.3786 63.3862 25.4891 63.3173L26.2646 62.8355L24.6971 60.3077L23.915 60.7895C23.8039 60.8582 23.676 60.8945 23.5454 60.8945C23.4148 60.8945 23.2868 60.8582 23.1758 60.7895L22.9877 60.6839C22.9217 60.6487 22.8557 60.6157 22.7897 60.5849C22.6707 60.5302 22.5691 60.4435 22.4963 60.3346C22.4235 60.2257 22.3823 60.0987 22.3772 59.9678L22.3475 59.0537L19.3775 59.1461L19.4039 60.0569C19.4113 60.1911 19.3801 60.3245 19.314 60.4415C19.2479 60.5585 19.1497 60.654 19.031 60.7169C18.9011 60.7875 18.7755 60.8658 18.6548 60.9512C18.5478 61.0262 18.4221 61.0703 18.2917 61.0784C18.1613 61.0866 18.0311 61.0585 17.9156 60.9974L17.1104 60.5684L15.7046 63.2084L16.4999 63.5912C16.6172 63.6555 16.7141 63.7514 16.7795 63.8681C16.8448 63.9849 16.876 64.1176 16.8695 64.2512C16.8613 64.3996 16.8613 64.5483 16.8695 64.6967C16.8807 64.8265 16.8558 64.9568 16.7975 65.0732C16.7393 65.1897 16.65 65.2878 16.5395 65.3567L15.764 65.8352L17.3315 68.3663L18.1103 67.8746ZM18.8561 63.1754C19.0844 62.7503 19.4337 62.4025 19.8598 62.176C20.2859 61.9495 20.7696 61.8545 21.2497 61.9031C21.7298 61.9516 22.1847 62.1414 22.5569 62.4486C22.929 62.7558 23.2017 63.1664 23.3403 63.6286C23.479 64.0908 23.4774 64.5838 23.3358 65.0451C23.1942 65.5064 22.9189 65.9153 22.5448 66.2201C22.1707 66.5248 21.7146 66.7118 21.2342 66.7572C20.7538 66.8027 20.2707 66.7046 19.8461 66.4754C19.2777 66.1686 18.8542 65.6488 18.6686 65.0302C18.483 64.4115 18.5504 63.7444 18.8561 63.1754Z" fill="#EBEBEB"/>
<path d="M25.7202 56.4898C25.766 56.4101 25.8333 56.3449 25.9144 56.3017C25.9956 56.2585 26.0872 56.2391 26.1789 56.2456H26.4891C26.5803 56.2399 26.6714 56.2593 26.7523 56.3018C26.8332 56.3443 26.9008 56.4082 26.9478 56.4865L27.2778 57.0409L29.0829 56.0014L28.7529 55.447C28.7074 55.3669 28.6851 55.2756 28.6886 55.1835C28.6921 55.0914 28.7212 55.0021 28.7727 54.9256C28.829 54.8381 28.8808 54.7478 28.9278 54.655C28.9689 54.5736 29.0316 54.505 29.109 54.4567C29.1863 54.4084 29.2755 54.3822 29.3667 54.3811H30.0069V52.2955H29.37C29.2787 52.2948 29.1894 52.2688 29.112 52.2205C29.0345 52.1722 28.9719 52.1033 28.9311 52.0216C28.8816 51.9292 28.8321 51.8401 28.776 51.7543C28.7245 51.6779 28.6954 51.5886 28.6919 51.4965C28.6884 51.4043 28.7107 51.3131 28.7562 51.2329L29.0862 50.6785L27.2811 49.6357L26.9511 50.1934C26.9047 50.2723 26.8371 50.3366 26.7561 50.3792C26.675 50.4218 26.5837 50.4409 26.4924 50.4343H26.1855C26.0942 50.4409 26.0029 50.4218 25.9219 50.3792C25.8408 50.3366 25.7733 50.2723 25.7268 50.1934L25.3968 49.6357L23.5884 50.6785L23.9184 51.2329C23.967 51.3106 23.9928 51.4004 23.9928 51.492C23.9928 51.5836 23.967 51.6734 23.9184 51.751C23.8623 51.8401 23.8095 51.9292 23.7633 52.0216C23.7223 52.1038 23.6592 52.173 23.5811 52.2214C23.503 52.2697 23.413 52.2954 23.3211 52.2955H22.6611V54.3811H23.298C23.3902 54.3819 23.4803 54.4083 23.5583 54.4572C23.6364 54.5062 23.6994 54.5758 23.7402 54.6583C23.7868 54.7503 23.8385 54.8396 23.8953 54.9256C23.9438 55.0039 23.9695 55.0942 23.9695 55.1863C23.9695 55.2785 23.9438 55.3687 23.8953 55.447L23.5653 56.0014L25.41 57.0409L25.7202 56.4898ZM24.6246 53.3416C24.624 53.0034 24.7237 52.6726 24.9111 52.3911C25.0985 52.1095 25.3653 51.8899 25.6776 51.76C25.9899 51.6301 26.3337 51.5958 26.6655 51.6614C26.9973 51.727 27.3022 51.8895 27.5416 52.1284C27.781 52.3674 27.9441 52.672 28.0103 53.0036C28.0766 53.3353 28.0429 53.6792 27.9136 53.9917C27.7843 54.3043 27.5652 54.5714 27.2841 54.7594C27.0029 54.9474 26.6723 55.0477 26.334 55.0477C25.8812 55.0477 25.4469 54.8681 25.1265 54.5482C24.806 54.2284 24.6255 53.7944 24.6246 53.3416Z" fill="#EBEBEB"/>
<path d="M144.54 111.956C144.46 111.909 144.395 111.841 144.352 111.76C144.309 111.678 144.289 111.586 144.296 111.494C144.296 111.444 144.296 111.395 144.296 111.342C144.296 111.289 144.296 111.24 144.296 111.187C144.289 111.095 144.308 111.004 144.351 110.923C144.394 110.842 144.458 110.775 144.537 110.728L145.091 110.398L144.052 108.593L143.497 108.923C143.417 108.968 143.326 108.99 143.234 108.986C143.142 108.983 143.053 108.954 142.976 108.903C142.889 108.846 142.799 108.794 142.705 108.748C142.624 108.706 142.556 108.643 142.508 108.565C142.46 108.487 142.435 108.397 142.435 108.306V107.669H140.349V108.306C140.349 108.398 140.323 108.488 140.275 108.566C140.226 108.644 140.157 108.707 140.075 108.748C139.983 108.795 139.894 108.846 139.808 108.903C139.731 108.954 139.642 108.983 139.55 108.986C139.458 108.99 139.367 108.968 139.286 108.923L138.732 108.593L137.689 110.398L138.247 110.728C138.325 110.774 138.389 110.841 138.432 110.922C138.474 111.002 138.494 111.093 138.488 111.183C138.488 111.236 138.488 111.286 138.488 111.339C138.488 111.391 138.488 111.441 138.488 111.49C138.494 111.582 138.475 111.674 138.432 111.755C138.39 111.837 138.326 111.905 138.247 111.952L137.689 112.282L138.732 114.087L139.286 113.757C139.366 113.713 139.457 113.691 139.548 113.694C139.64 113.698 139.728 113.726 139.805 113.777C139.894 113.833 139.983 113.886 140.075 113.932C140.157 113.973 140.226 114.036 140.275 114.115C140.323 114.193 140.349 114.283 140.349 114.375V115.011H142.438V114.378C142.438 114.286 142.464 114.196 142.512 114.118C142.56 114.04 142.63 113.977 142.712 113.936C142.804 113.889 142.893 113.837 142.979 113.781C143.056 113.73 143.145 113.701 143.237 113.698C143.329 113.694 143.42 113.716 143.501 113.761L144.055 114.091L145.094 112.286L144.54 111.956ZM141.392 113.051C141.054 113.052 140.723 112.952 140.441 112.765C140.16 112.577 139.94 112.311 139.81 111.998C139.68 111.686 139.646 111.342 139.712 111.01C139.777 110.679 139.94 110.374 140.179 110.134C140.418 109.895 140.722 109.732 141.054 109.666C141.385 109.599 141.729 109.633 142.042 109.762C142.354 109.892 142.622 110.111 142.81 110.392C142.998 110.673 143.098 111.004 143.098 111.342C143.098 111.794 142.919 112.228 142.6 112.548C142.28 112.869 141.847 113.049 141.395 113.051H141.392Z" fill="#EBEBEB"/>
<path d="M66.1319 122.427H48.5891V141.851H66.1319V122.427Z" fill="#EBEBEB"/>
<path d="M39.5406 141.851H48.5991V122.423H39.5406V141.851Z" fill="#DBDBDB"/>
<path d="M55.8689 126.627H56.2418H56.519L56.6807 126.304L56.9018 126.627L57.2054 125.961L57.4925 126.627H58.3142H58.6871L58.8224 126.182L58.9511 126.627H59.1953V122.43H55.8689V126.627Z" fill="white"/>
<path d="M40.1543 140.517C40.8143 139.134 41.4743 137.748 42.1343 136.359L44.1143 132.182L46.0547 127.984C46.6971 126.585 47.3329 125.179 47.9621 123.767C47.3021 125.15 46.6421 126.536 45.9821 127.925L44.0021 132.102L42.065 136.29C41.4204 137.7 40.7835 139.109 40.1543 140.517Z" fill="#EBEBEB"/>
<path d="M40.1543 123.77C40.7835 125.178 41.4204 126.582 42.065 127.984L44.0054 132.181L45.9854 136.359C46.6454 137.752 47.3054 139.138 47.9654 140.517C47.3362 139.109 46.6993 137.703 46.0547 136.3L44.1143 132.102L42.1343 127.924C41.4875 126.536 40.8275 125.151 40.1543 123.77Z" fill="#EBEBEB"/>
<path d="M70.8345 103.032H53.2917V122.456H70.8345V103.032Z" fill="#EBEBEB"/>
<path d="M44.2398 122.456H53.2983V103.029H44.2398V122.456Z" fill="#DBDBDB"/>
<path d="M60.5715 107.233H60.9444H61.2216L61.38 106.91L61.6044 107.233L61.908 106.567L62.1951 107.23H63.0168H63.3897L63.525 106.788L63.6537 107.23H63.8979V103.032L60.5715 103.036V107.233Z" fill="white"/>
<path d="M44.8569 121.11C45.5169 119.726 46.1769 118.34 46.8369 116.952L48.8169 112.774L50.7573 108.577C51.3975 107.178 52.0333 105.772 52.6647 104.359C52.0047 105.743 51.3447 107.129 50.6847 108.517L48.7047 112.695L46.7643 116.893C46.1241 118.305 45.4883 119.711 44.8569 121.11Z" fill="#EBEBEB"/>
<path d="M44.8569 104.372C45.4883 105.784 46.1252 107.19 46.7676 108.589L48.708 112.787L50.688 116.965C51.348 118.353 52.008 119.739 52.668 121.123C52.0388 119.71 51.4019 118.305 50.7573 116.905L48.8169 112.708L46.8369 108.53C46.1923 107.142 45.5323 105.756 44.8569 104.372Z" fill="#EBEBEB"/>
<path d="M82.5001 155.086C118.55 155.086 147.774 152.6 147.774 149.532C147.774 146.465 118.55 143.979 82.5001 143.979C46.4502 143.979 17.2261 146.465 17.2261 149.532C17.2261 152.6 46.4502 155.086 82.5001 155.086Z" fill="#EBEBEB"/>
<path d="M15.5034 141.943L32.2542 141.861L49.0017 141.834L82.5 141.778L115.998 141.834L132.746 141.861L149.493 141.943L132.746 142.023L115.998 142.052L82.5 142.108L49.0017 142.052L32.2542 142.023L15.5034 141.943Z" fill="#263238"/>
<path d="M142.56 22.9385H22.4365V107.065H142.56V22.9385Z" fill="white"/>
<path d="M142.649 107.154H22.3508V22.8525H142.649V107.154ZM22.529 106.979H142.474V23.0274H22.5257L22.529 106.979Z" fill="#DBDBDB"/>
<path d="M142.56 22.9385H22.4365V25.8623H142.56V22.9385Z" fill="#526EEB"/>
<path d="M24.7499 24.4203C24.7499 24.5639 24.7073 24.7043 24.6275 24.8237C24.5477 24.9431 24.4343 25.0361 24.3017 25.0911C24.169 25.146 24.023 25.1604 23.8822 25.1324C23.7414 25.1044 23.612 25.0352 23.5105 24.9337C23.409 24.8322 23.3398 24.7028 23.3118 24.562C23.2838 24.4211 23.2982 24.2752 23.3531 24.1425C23.4081 24.0098 23.5011 23.8965 23.6205 23.8167C23.7399 23.7369 23.8803 23.6943 24.0239 23.6943C24.2164 23.6943 24.4011 23.7708 24.5372 23.907C24.6734 24.0431 24.7499 24.2278 24.7499 24.4203Z" fill="#263238"/>
<path d="M27.7198 24.4203C27.7198 24.5639 27.6772 24.7043 27.5975 24.8237C27.5177 24.9431 27.4043 25.0361 27.2717 25.0911C27.139 25.146 26.993 25.1604 26.8522 25.1324C26.7114 25.1044 26.582 25.0352 26.4805 24.9337C26.3789 24.8322 26.3098 24.7028 26.2818 24.562C26.2538 24.4211 26.2681 24.2752 26.3231 24.1425C26.378 24.0099 26.4711 23.8965 26.5905 23.8167C26.7099 23.7369 26.8502 23.6943 26.9938 23.6943C27.0893 23.6939 27.1839 23.7124 27.2722 23.7487C27.3604 23.785 27.4407 23.8385 27.5082 23.906C27.5757 23.9735 27.6291 24.0537 27.6654 24.142C27.7018 24.2303 27.7203 24.3249 27.7198 24.4203Z" fill="white"/>
<path d="M30.69 24.4203C30.69 24.5641 30.6474 24.7046 30.5675 24.824C30.4875 24.9435 30.374 25.0365 30.2411 25.0914C30.1082 25.1462 29.9621 25.1604 29.8212 25.1321C29.6803 25.1039 29.5509 25.0344 29.4495 24.9325C29.3481 24.8307 29.2792 24.701 29.2516 24.5599C29.2239 24.4189 29.2388 24.2728 29.2943 24.1402C29.3497 24.0076 29.4433 23.8945 29.5631 23.8151C29.6829 23.7357 29.8236 23.6937 29.9673 23.6943C30.0625 23.6943 30.1568 23.7131 30.2447 23.7497C30.3326 23.7862 30.4124 23.8397 30.4795 23.9072C30.5467 23.9746 30.5999 24.0547 30.636 24.1428C30.6721 24.2308 30.6905 24.3252 30.69 24.4203Z" fill="#455A64"/>
<path d="M142.56 25.8652H22.4365V35.6266H142.56V25.8652Z" fill="#37474F"/>
<path d="M60.3173 28.5947H28.7759V32.8979H60.3173V28.5947Z" fill="white"/>
<path d="M60.3602 32.9411H28.7297V28.5488H60.3602V32.9411ZM28.8188 32.852H60.2711V28.6379H28.8188V32.852Z" fill="#C7C7C7"/>
<path d="M60.3603 28.5488H55.968V32.9411H60.3603V28.5488Z" fill="#526EEB"/>
<path d="M59.5286 31.9507L59.1326 32.251L58.4099 31.2808L58.1426 30.9244C58.1979 30.9029 58.2501 30.874 58.2977 30.8386C58.3875 30.7691 58.457 30.6768 58.499 30.5713L58.7861 30.9508L59.5286 31.9507Z" fill="white"/>
<path d="M58.74 29.6602C58.6094 29.4874 58.4303 29.3573 58.2255 29.2865C58.0208 29.2157 57.7996 29.2074 57.5901 29.2627C57.3806 29.3179 57.1923 29.4342 57.0491 29.5968C56.9059 29.7593 56.8142 29.9608 56.7858 30.1756C56.7574 30.3904 56.7935 30.6087 56.8895 30.8029C56.9855 30.9972 57.1371 31.1584 57.325 31.2663C57.5129 31.3741 57.7286 31.4236 57.9448 31.4085C58.1609 31.3934 58.3676 31.3144 58.5387 31.1815C58.6256 31.1173 58.7014 31.0392 58.7631 30.9505C58.8973 30.761 58.9675 30.5337 58.9633 30.3016C58.9591 30.0694 58.8809 29.8447 58.74 29.6602ZM58.2747 30.8383C58.2271 30.8737 58.175 30.9026 58.1196 30.9241C57.9783 30.9823 57.8211 30.9897 57.675 30.945C57.5288 30.9002 57.4027 30.8061 57.3182 30.6788C57.2337 30.5514 57.196 30.3986 57.2116 30.2466C57.2272 30.0945 57.2951 29.9526 57.4037 29.845C57.5122 29.7374 57.6548 29.6709 57.807 29.6567C57.9592 29.6425 58.1116 29.6816 58.2382 29.7673C58.3647 29.853 58.4577 29.98 58.501 30.1266C58.5444 30.2731 58.5356 30.4302 58.476 30.571C58.4359 30.6758 58.3687 30.768 58.2813 30.8383H58.2747Z" fill="white"/>
<path d="M29.9046 29.4395H29.6736V32.0498H29.9046V29.4395Z" fill="#C7C7C7"/>
<path d="M136.267 28.5488H131.875V29.4068H136.267V28.5488Z" fill="#EBEBEB"/>
<path d="M136.267 30.3135H131.875V31.1715H136.267V30.3135Z" fill="#EBEBEB"/>
<path d="M136.267 32.083H131.875V32.941H136.267V32.083Z" fill="#EBEBEB"/>
<path d="M86.1927 101.241H109.669V83.5631H86.1927V101.241Z" fill="#526EEB"/>
<path opacity="0.2" d="M88.7137 87.4304C88.6274 87.8704 88.6846 88.3265 88.8771 88.7315C89.0696 89.1365 89.3871 89.4689 89.7828 89.6798C90.1786 89.8907 90.6315 89.9689 91.0751 89.9028C91.5186 89.8367 91.9291 89.6299 92.2462 89.3128C92.5632 88.9958 92.7701 88.5852 92.8361 88.1417C92.9022 87.6982 92.824 87.2452 92.6132 86.8495C92.4023 86.4538 92.0698 86.1363 91.6649 85.9438C91.2599 85.7513 90.8037 85.694 90.3637 85.7804C89.9561 85.8609 89.5816 86.0607 89.2878 86.3545C88.994 86.6483 88.7942 87.0228 88.7137 87.4304Z" fill="black"/>
<path opacity="0.2" d="M92.8354 97.4328H109.804L101.32 87.9189L92.8354 97.4328Z" fill="black"/>
<path d="M86.1892 97.4392H100.198L93.1951 91.2451L86.1892 97.4392Z" fill="#526EEB"/>
<path opacity="0.3" d="M86.1892 97.4392H100.198L93.1951 91.2451L86.1892 97.4392Z" fill="black"/>
<path d="M109.665 97.4326H86.1892V101.241H109.665V97.4326Z" fill="#526EEB"/>
<path opacity="0.3" d="M109.665 97.4326H86.1892V101.241H109.665V97.4326Z" fill="black"/>
<path d="M103.485 59.502H86.1431V60.9606H103.485V59.502Z" fill="#A6A6A6"/>
<path d="M136.326 62.8877H86.1431V64.3463H136.326V62.8877Z" fill="#EBEBEB"/>
<path d="M136.326 66.0957H86.1431V67.5543H136.326V66.0957Z" fill="#EBEBEB"/>
<path d="M136.326 69.3066H86.1431V70.7652H136.326V69.3066Z" fill="#EBEBEB"/>
<path d="M136.326 72.5176H86.1431V73.9762H136.326V72.5176Z" fill="#EBEBEB"/>
<path d="M129.561 83.5557H112.22V85.0143H129.561V83.5557Z" fill="#A6A6A6"/>
<path d="M136.323 86.9414H112.22V88.4H136.323V86.9414Z" fill="#EBEBEB"/>
<path d="M136.323 90.1523H112.22V91.6109H136.323V90.1523Z" fill="#EBEBEB"/>
<path d="M136.323 93.3604H112.22V94.8189H136.323V93.3604Z" fill="#EBEBEB"/>
<path d="M136.323 96.5713H112.22V98.0299H136.323V96.5713Z" fill="#EBEBEB"/>
<path d="M136.323 99.7822H112.22V101.241H136.323V99.7822Z" fill="#EBEBEB"/>
<path d="M136.326 76.2764H86.1431V80.2562H136.326V76.2764Z" fill="#455A64"/>
<path d="M46.0151 86.7666H28.6736V88.2252H46.0151V86.7666Z" fill="#A6A6A6"/>
<path d="M78.8567 90.1523H28.6736V91.6109H78.8567V90.1523Z" fill="#EBEBEB"/>
<path d="M78.8567 93.3604H28.6736V94.8189H78.8567V93.3604Z" fill="#EBEBEB"/>
<path d="M78.8567 96.5713H28.6736V98.0299H78.8567V96.5713Z" fill="#EBEBEB"/>
<path d="M78.8567 99.7822H28.6736V101.241H78.8567V99.7822Z" fill="#EBEBEB"/>
<path d="M78.8567 76.2764H28.6736V80.2562H78.8567V76.2764Z" fill="#455A64"/>
<path d="M136.353 56.9056H135.775V56.7406H136.188V56.3281H136.353V56.9056Z" fill="#A6A6A6"/>
<path d="M134.772 56.9052H133.782V56.7402H134.772V56.9052ZM132.766 56.9052H131.776V56.7402H132.766V56.9052ZM130.762 56.9052H129.772V56.7402H130.762V56.9052ZM128.756 56.9052H127.766V56.7402H128.756V56.9052ZM126.75 56.9052H125.76V56.7402H126.75V56.9052ZM124.743 56.9052H123.753V56.7402H124.743V56.9052ZM122.74 56.9052H121.75V56.7402H122.74V56.9052ZM120.734 56.9052H119.744V56.7402H120.734V56.9052ZM118.727 56.9052H117.737V56.7402H118.727V56.9052ZM116.721 56.9052H115.731V56.7402H116.721V56.9052ZM114.718 56.9052H113.728V56.7402H114.718V56.9052ZM112.711 56.9052H111.721V56.7402H112.711V56.9052ZM110.705 56.9052H109.715V56.7402H110.705V56.9052ZM108.699 56.9052H107.709V56.7402H108.699V56.9052ZM106.696 56.9052H105.706V56.7402H106.696V56.9052ZM104.689 56.9052H103.699V56.7402H104.689V56.9052ZM102.683 56.9052H101.693V56.7402H102.683V56.9052ZM100.676 56.9052H99.6863V56.7402H100.676V56.9052ZM98.6732 56.9052H97.6832V56.7402H98.6732V56.9052ZM96.6668 56.9052H95.6768V56.7402H96.6668V56.9052ZM94.6604 56.9052H93.6704V56.7402H94.6604V56.9052ZM92.654 56.9052H91.664V56.7402H92.654V56.9052ZM90.6509 56.9052H89.6609V56.7402H90.6509V56.9052ZM88.6445 56.9052H87.6545V56.7402H88.6445V56.9052Z" fill="#A6A6A6"/>
<path d="M86.638 56.9056H86.0605V56.3281H86.2255V56.7406H86.638V56.9056Z" fill="#A6A6A6"/>
<path d="M86.2255 55.3706H86.0605V54.4169H86.2255V55.3706ZM86.2255 53.4599H86.0605V52.5062H86.2255V53.4599ZM86.2255 51.5492H86.0605V50.5955H86.2255V51.5492ZM86.2255 49.6385H86.0605V48.6848H86.2255V49.6385ZM86.2255 47.7278H86.0605V46.7741H86.2255V47.7278ZM86.2255 45.8171H86.0605V44.8799H86.2255V45.8171ZM86.2255 43.9064H86.0605V42.9527H86.2255V43.9064ZM86.2255 41.9957H86.0605V41.042H86.2255V41.9957Z" fill="#A6A6A6"/>
<path d="M86.2255 40.0853H86.0605V39.5078H86.638V39.6728H86.2255V40.0853Z" fill="#A6A6A6"/>
<path d="M134.772 39.6728H133.782V39.5078H134.772V39.6728ZM132.766 39.6728H131.776V39.5078H132.766V39.6728ZM130.762 39.6728H129.772V39.5078H130.762V39.6728ZM128.756 39.6728H127.766V39.5078H128.756V39.6728ZM126.75 39.6728H125.76V39.5078H126.75V39.6728ZM124.743 39.6728H123.753V39.5078H124.743V39.6728ZM122.74 39.6728H121.75V39.5078H122.74V39.6728ZM120.734 39.6728H119.744V39.5078H120.734V39.6728ZM118.727 39.6728H117.737V39.5078H118.727V39.6728ZM116.721 39.6728H115.731V39.5078H116.721V39.6728ZM114.718 39.6728H113.728V39.5078H114.718V39.6728ZM112.711 39.6728H111.721V39.5078H112.711V39.6728ZM110.705 39.6728H109.715V39.5078H110.705V39.6728ZM108.699 39.6728H107.709V39.5078H108.699V39.6728ZM106.696 39.6728H105.706V39.5078H106.696V39.6728ZM104.689 39.6728H103.699V39.5078H104.689V39.6728ZM102.683 39.6728H101.693V39.5078H102.683V39.6728ZM100.676 39.6728H99.6863V39.5078H100.676V39.6728ZM98.6732 39.6728H97.6832V39.5078H98.6732V39.6728ZM96.6668 39.6728H95.6768V39.5078H96.6668V39.6728ZM94.6604 39.6728H93.6704V39.5078H94.6604V39.6728ZM92.654 39.6728H91.664V39.5078H92.654V39.6728ZM90.6509 39.6728H89.6609V39.5078H90.6509V39.6728ZM88.6445 39.6728H87.6545V39.5078H88.6445V39.6728Z" fill="#A6A6A6"/>
<path d="M136.353 40.0853H136.188V39.6728H135.775V39.5078H136.353V40.0853Z" fill="#A6A6A6"/>
<path d="M136.353 55.3706H136.188V54.4169H136.353V55.3706ZM136.353 53.4599H136.188V52.5062H136.353V53.4599ZM136.353 51.5492H136.188V50.5955H136.353V51.5492ZM136.353 49.6385H136.188V48.6848H136.353V49.6385ZM136.353 47.7278H136.188V46.7741H136.353V47.7278ZM136.353 45.8171H136.188V44.8799H136.353V45.8171ZM136.353 43.9064H136.188V42.9527H136.353V43.9064ZM136.353 41.9957H136.188V41.042H136.353V41.9957Z" fill="#A6A6A6"/>
<path d="M113.088 112.576H62.6902V145.949H113.088V112.576Z" fill="#37474F"/>
<path d="M93.3188 131.093C94.3231 128.097 92.7082 124.854 89.7118 123.849C86.7153 122.845 83.472 124.46 82.4677 127.456C81.4633 130.453 83.0783 133.696 86.0747 134.7C89.0712 135.705 92.3144 134.09 93.3188 131.093Z" fill="#455A64"/>
<path d="M85.4766 131.684V126.846L91.5255 129.261L85.4766 131.684Z" fill="white"/>
<path d="M113.091 143.342H62.6936V145.949H113.091V143.342Z" fill="#EBEBEB"/>
<path d="M108.164 144.26H65.7461V145.032H108.164V144.26Z" fill="#C7C7C7"/>
<path d="M64.7988 143.827H63.1521V145.474H64.7988V143.827Z" fill="#C7C7C7"/>
<path d="M63.8518 144.121H63.5383V145.18H63.8518V144.121Z" fill="#A6A6A6"/>
<path d="M64.4129 144.121H64.0994V145.18H64.4129V144.121Z" fill="#A6A6A6"/>
<path d="M110.487 143.817H108.841V145.464H110.487V143.817Z" fill="#C7C7C7"/>
<path d="M109.412 144.441H109.088V144.841H109.412V144.441Z" fill="#A6A6A6"/>
<path d="M109.771 145.098L109.286 144.84V144.441L109.771 144.184V145.098Z" fill="#A6A6A6"/>
<path d="M110.012 144.339L110.085 144.263C110.167 144.345 110.22 144.451 110.237 144.566C110.25 144.648 110.243 144.732 110.217 144.81C110.191 144.889 110.147 144.96 110.088 145.018L110.012 144.946C110.052 144.906 110.084 144.859 110.106 144.807C110.127 144.755 110.138 144.699 110.138 144.642C110.138 144.586 110.128 144.53 110.106 144.477C110.085 144.425 110.053 144.378 110.012 144.339Z" fill="#A6A6A6"/>
<path d="M109.94 144.87L109.864 144.797C109.885 144.777 109.901 144.753 109.913 144.726C109.924 144.7 109.93 144.671 109.93 144.642C109.93 144.613 109.925 144.584 109.913 144.558C109.902 144.531 109.885 144.507 109.864 144.487L109.936 144.411C109.996 144.472 110.03 144.554 110.031 144.64C110.031 144.725 109.999 144.808 109.94 144.87Z" fill="#A6A6A6"/>
<path d="M112.454 143.817H110.807V145.464H112.454V143.817Z" fill="#C7C7C7"/>
<path d="M111.751 144.081H111.072V144.761H111.751V144.081Z" fill="#A6A6A6"/>
<path d="M112.2 144.55H111.52V145.23H112.2V144.55Z" fill="white"/>
<path d="M73.6957 144.649C73.6942 144.783 73.7248 144.915 73.7848 145.035H65.7493V144.26H73.7881C73.727 144.38 73.6953 144.514 73.6957 144.649Z" fill="#A6A6A6"/>
<path d="M75.4612 144.649C75.4612 144.883 75.3684 145.107 75.2032 145.272C75.0379 145.437 74.8138 145.53 74.5801 145.53C74.4147 145.531 74.2524 145.485 74.1122 145.398C73.9719 145.31 73.8595 145.184 73.7881 145.035C73.7281 144.915 73.6976 144.783 73.699 144.649C73.6987 144.514 73.7304 144.38 73.7914 144.26C73.8626 144.111 73.9745 143.986 74.1141 143.898C74.2537 143.81 74.4153 143.764 74.5801 143.765C74.7452 143.765 74.9068 143.812 75.0468 143.899C75.1868 143.987 75.2994 144.111 75.3721 144.26C75.4291 144.382 75.4594 144.514 75.4612 144.649Z" fill="#A6A6A6"/>
<path d="M131.951 147.691V123.604H85.0544V147.691H131.951Z" fill="white"/>
<path d="M132.033 147.774H84.9717V123.522H132.033V147.774ZM85.14 147.609H131.868V123.687H85.14V147.609Z" fill="#DBDBDB"/>
<path d="M87.8891 144.56H107.59V126.736H87.8891V144.56Z" fill="#526EEB"/>
<path opacity="0.2" d="M90.4201 130.634C90.3305 131.078 90.3862 131.539 90.579 131.949C90.7718 132.359 91.0914 132.695 91.4905 132.909C91.8897 133.123 92.3471 133.203 92.7951 133.137C93.2431 133.071 93.658 132.862 93.9782 132.542C94.2984 132.222 94.5071 131.807 94.5732 131.359C94.6394 130.911 94.5595 130.454 94.3455 130.055C94.1314 129.655 93.7946 129.336 93.3848 129.143C92.975 128.95 92.514 128.894 92.0701 128.984C91.6634 129.067 91.29 129.267 90.9965 129.56C90.7031 129.854 90.5026 130.227 90.4201 130.634Z" fill="black"/>
<path opacity="0.2" d="M93.4363 140.718H107.59L100.511 131.125L93.4363 140.718Z" fill="black"/>
<path d="M87.8889 140.728H99.5775L93.7332 134.481L87.8889 140.728Z" fill="#526EEB"/>
<path opacity="0.3" d="M87.8889 140.728H99.5775L93.7332 134.481L87.8889 140.728Z" fill="black"/>
<path d="M107.59 140.719H87.8889V144.56H107.59V140.719Z" fill="#526EEB"/>
<path opacity="0.3" d="M107.59 140.719H87.8889V144.56H107.59V140.719Z" fill="black"/>
<path d="M127.67 126.736H110.89V127.957H127.67V126.736Z" fill="#EBEBEB"/>
<path d="M127.67 129.265H110.89V130.486H127.67V129.265Z" fill="#EBEBEB"/>
<path d="M127.67 131.792H110.89V133.013H127.67V131.792Z" fill="#EBEBEB"/>
<path d="M127.67 134.32H110.89V135.541H127.67V134.32Z" fill="#EBEBEB"/>
<path d="M127.67 136.845H110.89V138.066H127.67V136.845Z" fill="#EBEBEB"/>
<path d="M131.921 129.558C131.921 129.558 126.743 128.386 123.905 125.769C121.067 123.152 119.483 118.47 119.483 118.47C121.45 118.847 123.389 119.356 125.288 119.994C125.999 120.725 126.592 121.562 127.043 122.476C127.088 121.885 127.088 121.292 127.043 120.701C127.705 120.988 128.325 121.364 128.885 121.819C131.254 123.882 131.921 129.558 131.921 129.558Z" fill="#526EEB"/>
<path d="M122.714 120.746C122.008 120.258 121.292 119.789 120.589 119.294C120.579 119.288 120.573 119.279 120.57 119.269C120.568 119.258 120.57 119.247 120.575 119.238C120.581 119.229 120.59 119.222 120.601 119.22C120.611 119.217 120.622 119.219 120.632 119.225C121.952 120.023 123.272 120.875 124.552 121.766C124.992 122.078 125.432 122.401 125.872 122.733L125.783 122.578C125.628 122.317 125.453 122.063 125.298 121.809C124.974 121.289 124.606 120.798 124.199 120.34C124.196 120.337 124.194 120.332 124.195 120.328C124.195 120.323 124.197 120.319 124.2 120.316C124.204 120.312 124.209 120.311 124.213 120.311C124.218 120.312 124.222 120.314 124.225 120.317C124.628 120.782 125.03 121.241 125.4 121.736C125.575 121.97 125.73 122.211 125.892 122.459C125.971 122.588 126.05 122.72 126.123 122.852L126.202 122.984C126.862 123.512 127.522 124.059 128.146 124.634C128.528 124.992 128.899 125.363 129.258 125.746C129.056 125.119 128.882 124.485 128.651 123.868C128.651 123.848 128.677 123.838 128.684 123.868C128.908 124.528 129.155 125.165 129.344 125.828C129.74 126.257 130.119 126.703 130.475 127.148C130.475 127.118 130.475 127.092 130.459 127.062C130.4 126.818 130.337 126.574 130.274 126.333C130.145 125.864 130.01 125.399 129.852 124.94C129.555 123.982 129.083 123.086 128.459 122.3C128.459 122.284 128.459 122.258 128.486 122.277C129.454 123.487 130.132 124.903 130.466 126.416C130.521 126.636 130.573 126.856 130.624 127.076C130.65 127.194 130.68 127.313 130.7 127.435C130.858 127.646 131.01 127.861 131.159 128.079C132.041 129.426 132.776 130.864 133.35 132.369C133.993 134.061 134.544 135.787 135 137.54C135 137.576 134.96 137.586 134.947 137.54C133.937 134.51 132.901 131.438 131.168 128.732C130.802 128.163 130.408 127.612 129.987 127.082C129.129 127.028 128.282 126.859 127.469 126.581C126.58 126.283 125.731 125.873 124.945 125.363C124.496 125.056 124.065 124.725 123.651 124.373C123.648 124.37 123.645 124.365 123.645 124.361C123.645 124.356 123.646 124.352 123.649 124.348C123.652 124.345 123.657 124.342 123.661 124.342C123.666 124.342 123.671 124.343 123.674 124.346C124.397 124.929 125.195 125.412 126.047 125.782C126.883 126.165 127.758 126.458 128.657 126.656C129.04 126.742 129.429 126.802 129.815 126.854C129.336 126.266 128.827 125.702 128.291 125.165C128.116 124.99 127.934 124.835 127.753 124.653C127.149 124.232 126.508 123.865 125.839 123.558C124.991 123.149 124.156 122.713 123.318 122.287C122.843 122.046 122.374 121.799 121.895 121.565C121.876 121.565 121.895 121.525 121.915 121.535C122.763 121.947 123.628 122.33 124.489 122.723C125.298 123.096 126.113 123.465 126.892 123.901L126.987 123.96C126.288 123.35 125.562 122.769 124.819 122.208C124.124 121.724 123.422 121.237 122.714 120.746Z" fill="#263238"/>
<path d="M123.008 123.42C123.43 123.605 123.859 123.77 124.275 123.964C124.691 124.159 125.11 124.4 125.516 124.641C125.535 124.641 125.516 124.674 125.499 124.667C125.087 124.469 124.671 124.285 124.262 124.08C123.852 123.875 123.427 123.644 122.998 123.456C122.978 123.443 122.988 123.42 123.008 123.42Z" fill="#263238"/>
<path d="M148.738 103.468C147.783 104.699 147.242 106.201 147.19 107.758C147.19 108.223 147.246 108.87 147.302 109.629C146.008 110.382 144.863 111.365 143.923 112.53C144.958 111.931 146.145 111.646 147.339 111.711C147.31 112.231 147.244 112.748 147.141 113.259C146.387 113.261 145.64 113.409 144.943 113.694C145.623 113.686 146.297 113.82 146.923 114.087C146.002 117.024 143.256 120.027 135.683 121.321C134.879 117.72 135.352 113.952 137.023 110.662C139.293 106.194 148.738 103.468 148.738 103.468Z" fill="#526EEB"/>
<path d="M133.059 133.881C133.191 132.627 133.355 131.376 133.551 130.129C133.935 127.633 134.445 125.158 135.079 122.714C135.376 121.566 135.74 120.438 136.171 119.334C136.151 119.134 136.142 118.932 136.145 118.73C136.145 118.486 136.145 118.245 136.145 118.001C136.145 117.516 136.171 117.031 136.214 116.549C136.288 115.591 136.444 114.64 136.679 113.708C136.818 113.17 136.976 112.639 137.135 112.104C137.136 112.101 137.139 112.098 137.142 112.095C137.145 112.093 137.149 112.092 137.153 112.092C137.157 112.092 137.161 112.093 137.164 112.095C137.167 112.098 137.17 112.101 137.171 112.104C136.918 113.035 136.731 113.982 136.61 114.939C136.476 115.881 136.391 116.829 136.356 117.78C136.356 118.041 136.356 118.301 136.356 118.562C136.356 118.674 136.356 118.787 136.356 118.892C136.728 117.987 137.155 117.106 137.633 116.252C138.402 114.897 139.269 113.6 140.227 112.371C140.228 112.228 140.249 112.086 140.29 111.949C140.323 111.781 140.362 111.619 140.398 111.441C140.478 111.111 140.563 110.751 140.656 110.411C140.844 109.725 141.095 109.061 141.316 108.382C141.316 108.362 141.355 108.382 141.349 108.382C141.148 109.042 141.019 109.748 140.864 110.431C140.788 110.761 140.712 111.107 140.639 111.447C140.6 111.615 140.563 111.783 140.53 111.952C140.529 111.965 140.529 111.979 140.53 111.992C140.834 111.606 141.148 111.223 141.468 110.85C142.913 109.154 144.5 107.586 146.088 106.035C146.282 105.844 146.484 105.656 146.682 105.468C146.685 105.466 146.69 105.465 146.694 105.466C146.698 105.467 146.701 105.469 146.704 105.472C146.707 105.475 146.709 105.478 146.71 105.482C146.71 105.486 146.71 105.49 146.708 105.494C145.18 107.085 143.679 108.695 142.256 110.381C141.92 110.78 141.59 111.184 141.266 111.596L141.781 111.266C142.223 110.975 142.669 110.695 143.131 110.438C143.593 110.18 144.052 109.929 144.523 109.695C144.995 109.461 145.53 109.256 145.999 108.986C146.018 108.986 146.035 109.009 146.015 109.015C145.537 109.238 145.075 109.494 144.632 109.781C144.17 110.055 143.712 110.332 143.26 110.619C142.807 110.906 142.365 111.18 141.923 111.467C141.557 111.705 141.194 111.965 140.811 112.187C139.932 113.315 139.121 114.495 138.382 115.721C137.924 116.492 137.505 117.286 137.128 118.1L137.402 117.981L138.095 117.674L139.435 117.087C140.283 116.717 141.148 116.381 141.979 115.975C142.449 115.754 142.903 115.501 143.339 115.219C143.359 115.219 143.375 115.236 143.359 115.249C141.804 116.321 140.059 117.074 138.343 117.836L137.597 118.166C137.392 118.255 137.188 118.358 136.976 118.437C136.469 119.576 136.041 120.749 135.696 121.948C135.018 124.359 134.467 126.805 134.046 129.274C133.61 131.749 133.317 134.24 133.089 136.742C133.059 137.055 133.033 137.366 132.997 137.676C132.997 137.702 132.986 137.727 132.968 137.746C132.949 137.764 132.924 137.775 132.898 137.775C132.871 137.775 132.846 137.764 132.828 137.746C132.809 137.727 132.799 137.702 132.799 137.676C132.799 136.415 132.927 135.145 133.059 133.881Z" fill="#263238"/>
<path d="M137.669 112.961C137.808 112.189 137.999 111.437 138.221 110.684C138.221 110.68 138.222 110.676 138.225 110.673C138.228 110.67 138.233 110.668 138.237 110.668C138.241 110.668 138.246 110.67 138.249 110.673C138.252 110.676 138.254 110.68 138.254 110.684C138.062 111.424 137.924 112.179 137.785 112.928C137.646 113.678 137.518 114.466 137.412 115.238H137.389C137.44 114.475 137.533 113.715 137.669 112.961Z" fill="#263238"/>
<path d="M140.933 115.051C141.461 114.704 142.012 114.394 142.583 114.124C142.86 113.982 143.141 113.847 143.418 113.708C143.695 113.569 144.009 113.454 144.292 113.309C144.312 113.309 144.332 113.332 144.309 113.342C144.035 113.48 143.771 113.648 143.497 113.797L142.659 114.256C142.113 114.573 141.551 114.863 140.976 115.124C140.967 115.127 140.956 115.127 140.947 115.124C140.937 115.12 140.93 115.114 140.924 115.105C140.919 115.096 140.917 115.086 140.919 115.076C140.921 115.067 140.926 115.058 140.933 115.051Z" fill="#263238"/>
<path opacity="0.1" d="M131.825 120.591C131.825 120.591 127.05 119.46 124.836 116.232C122.734 113.163 122.054 107.929 122.001 107.471C122.1 107.91 123.09 112.464 126.337 114.595C128.835 116.229 131.248 117.569 131.825 120.591Z" fill="#263238"/>
<path d="M127.403 112.312C128.256 113.095 128.868 114.105 129.169 115.223C128.817 114.132 128.208 113.141 127.393 112.335C127.38 112.322 127.38 112.295 127.403 112.312Z" fill="#263238"/>
<path d="M131.825 120.591C131.825 120.591 127.05 119.459 124.836 116.232C122.734 113.163 122.054 107.929 122.001 107.471C122.002 107.46 122.002 107.448 122.001 107.438C122.001 107.438 124.311 110.704 126.717 111.536C129.122 112.368 132.518 115.252 131.825 120.591Z" fill="#526EEB"/>
<path d="M122.846 109.229C123.274 110.11 123.77 110.956 124.327 111.761C124.888 112.527 125.555 113.21 126.307 113.79C126.967 114.308 127.627 114.78 128.287 115.282V115.259C128.162 115.074 128.03 114.896 127.895 114.721C127.621 114.371 127.321 114.041 127.017 113.714C126.423 113.054 125.816 112.434 125.281 111.734C124.985 111.348 124.728 110.933 124.512 110.497C124.512 110.477 124.535 110.467 124.545 110.497C125.324 112.114 126.875 113.137 127.984 114.519C128.139 114.714 128.291 114.915 128.426 115.123C128.536 115.275 128.628 115.439 128.7 115.612C129.313 116.095 129.867 116.649 130.35 117.262C130.309 116.948 130.243 116.638 130.155 116.334C130.044 115.908 129.874 115.499 129.65 115.12C129.65 115.1 129.667 115.08 129.677 115.1C129.909 115.479 130.097 115.883 130.238 116.305C130.338 116.642 130.397 116.99 130.413 117.341C130.654 117.662 130.875 117.998 131.073 118.347L131.013 118.04C130.918 117.562 130.812 117.087 130.683 116.615C130.458 115.655 130.068 114.742 129.532 113.915C129.532 113.915 129.548 113.879 129.561 113.896C130.11 114.711 130.54 115.6 130.838 116.536C130.99 117.004 131.112 117.483 131.221 117.965C131.274 118.199 131.32 118.436 131.366 118.674C131.389 118.796 131.416 118.922 131.436 119.047C131.911 120.091 132.282 121.18 132.541 122.297C133.003 124.298 133.335 126.326 133.534 128.369C133.783 130.504 133.893 132.652 133.864 134.801C133.864 135.072 133.845 135.342 133.831 135.61C133.831 135.679 133.723 135.689 133.719 135.61C133.673 134.547 133.647 133.484 133.584 132.422C133.521 131.359 133.426 130.297 133.313 129.237C133.099 127.156 132.768 125.088 132.323 123.043C131.937 121.291 131.432 119.529 130.475 117.994C130 117.23 129.417 116.538 128.746 115.938C128.086 115.338 127.34 114.806 126.634 114.249C125.916 113.706 125.265 113.08 124.694 112.384C124.107 111.611 123.597 110.784 123.169 109.913C123.057 109.695 122.941 109.48 122.839 109.253C122.806 109.229 122.836 109.229 122.846 109.229Z" fill="#263238"/>
<path d="M149.408 118.47C149.408 118.47 149.483 125.278 145.411 127.241C141.339 129.205 139.158 127.571 136.392 128.231C136.501 128.069 138.475 125.231 141.616 124.449C144.847 123.641 148.427 121.308 149.408 118.47Z" fill="#526EEB"/>
<path opacity="0.1" d="M149.408 118.47C149.408 118.47 149.483 125.278 145.411 127.241C141.339 129.205 139.158 127.571 136.392 128.231C137.851 127.537 139.41 127.076 141.012 126.865C143.593 126.555 148.5 124.882 149.408 118.47Z" fill="black"/>
<path d="M136.125 128.369C136.608 127.928 137.153 127.559 137.742 127.274C137.831 127.231 137.92 127.198 138.009 127.158C138.098 127.119 138.098 127.053 138.145 127.003C138.266 126.875 138.394 126.754 138.527 126.64C138.783 126.418 139.058 126.221 139.349 126.049C140.009 125.653 140.762 125.373 141.451 125.007C141.471 125.007 141.488 125.026 141.468 125.036C141.138 125.215 140.808 125.409 140.478 125.604C140.148 125.799 139.818 125.97 139.511 126.172C139.23 126.356 138.961 126.557 138.706 126.775C138.636 126.838 138.567 126.907 138.498 126.977C138.948 126.825 139.408 126.703 139.874 126.61C140.62 126.462 141.372 126.353 142.115 126.195C142.48 126.118 142.842 126.021 143.197 125.904C143.527 125.634 143.857 125.363 144.187 125.066C144.574 124.712 144.927 124.322 145.24 123.901C145.24 123.881 145.283 123.901 145.269 123.901C144.777 124.571 144.218 125.188 143.6 125.743C143.778 125.677 143.949 125.607 144.121 125.528C145.519 124.901 146.719 123.902 147.589 122.641C147.589 122.624 147.632 122.641 147.619 122.66C146.881 123.743 145.926 124.66 144.814 125.353C144.258 125.701 143.663 125.983 143.042 126.195C142.319 126.416 141.583 126.59 140.837 126.716C140.107 126.835 139.386 127.006 138.679 127.228C138.03 127.448 137.42 127.77 136.871 128.181C135.834 128.985 134.999 130.02 134.432 131.204C133.703 132.775 133.249 134.459 133.089 136.184C133.089 136.256 132.967 136.256 132.97 136.184C133.152 133.319 133.917 130.349 136.125 128.369Z" fill="#263238"/>
<path d="M140.847 126.132C141.062 125.815 141.349 125.555 141.686 125.373C142.069 125.171 142.406 124.891 142.676 124.551C142.676 124.531 142.719 124.551 142.705 124.568C142.461 124.881 142.162 125.148 141.824 125.356C141.455 125.553 141.129 125.822 140.867 126.148C140.864 126.165 140.838 126.148 140.847 126.132Z" fill="#263238"/>
<path d="M138.689 133.379L138.504 137.121L137.937 148.559H129.396L128.829 137.121L128.644 133.379H138.689Z" fill="#37474F"/>
<path d="M138.689 133.379L138.504 137.121H128.829L128.644 133.379H138.689Z" fill="#263238"/>
<path d="M139.287 131.814H128.043V135.385H139.287V131.814Z" fill="#37474F"/>
<path d="M39.7552 60.093C42.3952 62.0136 49.0909 66.3432 51.9652 66.363C55.2916 66.363 64.6273 61.7694 66.3235 59.0172C67.132 57.6972 59.9182 55.0572 58.2418 55.6578C55.8427 56.4993 52.8595 58.5024 51.3118 58.6509C50.5099 58.7301 44.5765 56.7138 40.4977 56.2584C36.9865 55.8591 36.6763 57.8556 39.7552 60.093Z" fill="#D3766A"/>
<path d="M58.7004 64.7952L54.9153 56.8752C54.9153 56.8752 52.0377 58.0797 51.513 58.0797C50.0115 58.0797 43.5105 56.8587 40.8573 56.1921C38.2041 55.5255 35.871 57.0831 39.1116 59.9475C42.3522 62.8119 51.1797 66.7917 52.3281 66.894C53.4765 66.9963 58.7004 64.7952 58.7004 64.7952Z" fill="#526EEB"/>
<path d="M52.2819 65.3829C52.0603 65.4626 51.8514 65.5738 51.6615 65.7129C51.8957 65.6916 52.1256 65.6371 52.3446 65.5512C52.5661 65.4715 52.7751 65.3604 52.965 65.2212C52.7307 65.2422 52.5007 65.2967 52.2819 65.3829ZM45.5664 61.4559C45.3448 61.5356 45.1359 61.6468 44.946 61.7859C45.4223 61.742 45.8782 61.5711 46.266 61.2909C46.026 61.3118 45.7903 61.3674 45.5664 61.4559ZM51.975 60.9609C51.7534 61.0406 51.5445 61.1518 51.3546 61.2909C51.589 61.2688 51.819 61.2133 52.0377 61.1259C52.2599 61.0477 52.469 60.9365 52.6581 60.7959C52.4237 60.8183 52.1937 60.8739 51.975 60.9609ZM49.401 63.2709C49.3199 63.05 49.2088 62.8413 49.071 62.6505C49.1149 63.1269 49.2858 63.5828 49.566 63.9705C49.5439 63.7351 49.4883 63.5039 49.401 63.2841V63.2709ZM55.1628 59.1591C55.0833 58.9375 54.9721 58.7285 54.8328 58.5387C54.8541 58.7729 54.9086 59.0029 54.9945 59.2218C55.0728 59.444 55.184 59.6531 55.3245 59.8422C55.3022 59.6125 55.2478 59.387 55.1628 59.1723V59.1591ZM43.7151 58.344C43.6354 58.1225 43.5242 57.9135 43.3851 57.7236C43.4104 57.9596 43.4693 58.1907 43.56 58.41C43.6395 58.6317 43.7506 58.8406 43.89 59.0304C43.8654 58.7986 43.8064 58.5717 43.7151 58.3572V58.344ZM55.11 63.2742C54.9006 63.1763 54.6784 63.1085 54.45 63.0729C54.6307 63.2237 54.8318 63.3481 55.0473 63.4425C55.2566 63.5405 55.4789 63.6083 55.7073 63.6438C55.5266 63.4931 55.3255 63.3687 55.11 63.2742ZM41.4513 61.4592C41.2617 61.3719 41.0622 61.3076 40.8573 61.2678C41.0421 61.3932 41.2335 61.5186 41.4282 61.644C41.6248 61.7351 41.8339 61.7963 42.0486 61.8255C41.8692 61.6773 41.6704 61.554 41.4579 61.4592H41.4513ZM48.6915 59.1492C48.5935 59.3586 48.5257 59.5808 48.4902 59.8092C48.6409 59.6285 48.7653 59.4274 48.8598 59.2119C48.9563 59.002 49.024 58.78 49.0611 58.5519C48.9113 58.7381 48.7891 58.9448 48.6981 59.1657L48.6915 59.1492ZM39.1215 58.5123C39.0235 58.7217 38.9557 58.9439 38.9202 59.1723C39.0709 58.9916 39.1953 58.7905 39.2898 58.575C39.3863 58.3651 39.454 58.1431 39.4911 57.915C39.3467 58.1025 39.229 58.3091 39.1413 58.5288L39.1215 58.5123Z" fill="white"/>
<path d="M56.7797 65.2669C56.2847 64.0162 55.7138 62.8019 55.1561 61.5776C54.5984 60.3533 54.0407 59.1356 53.4203 57.9476C53.4167 57.9433 53.4118 57.9404 53.4063 57.9391C53.4009 57.9379 53.3952 57.9384 53.39 57.9406C53.3849 57.9428 53.3806 57.9466 53.3777 57.9514C53.3749 57.9562 53.3736 57.9618 53.3741 57.9673C53.8361 59.2312 54.3641 60.4621 54.9284 61.6864C55.4927 62.9107 56.0405 64.135 56.6906 65.3164C56.6972 65.3283 56.7082 65.337 56.7212 65.3407C56.7342 65.3444 56.7481 65.3428 56.7599 65.3363C56.7718 65.3297 56.7805 65.3187 56.7842 65.3057C56.7879 65.2927 56.7863 65.2788 56.7797 65.2669Z" fill="#263238"/>
<path d="M53.3347 66.7421C53.0136 66.8392 52.6803 66.8903 52.3447 66.8939C51.193 66.7916 42.3655 62.8151 39.1249 59.9474C36.2275 57.3833 37.8049 55.8686 40.0555 56.0567L53.3347 66.7421Z" fill="#263238"/>
<path d="M79.8545 53.3264L37.9534 59.6035L42.1101 87.3505L84.0112 81.0734L79.8545 53.3264Z" fill="#526EEB"/>
<path opacity="0.2" d="M79.8545 53.3264L37.9534 59.6035L42.1101 87.3505L84.0112 81.0734L79.8545 53.3264Z" fill="black"/>
<path d="M65.7394 69.6294C65.881 70.5705 65.7403 71.5324 65.3351 72.3936C64.9299 73.2547 64.2784 73.9763 63.4631 74.4672C62.6477 74.958 61.7051 75.196 60.7545 75.1511C59.8038 75.1062 58.8879 74.7803 58.1224 74.2148C57.357 73.6493 56.7765 72.8694 56.4543 71.9739C56.1321 71.0784 56.0827 70.1075 56.3124 69.1839C56.5421 68.2603 57.0405 67.4256 57.7446 66.7854C58.4487 66.1451 59.3269 65.728 60.268 65.5869C60.8928 65.4927 61.5299 65.5227 62.1431 65.6749C62.7562 65.8272 63.3334 66.0988 63.8415 66.4742C64.3496 66.8496 64.7788 67.3215 65.1045 67.8629C65.4301 68.4043 65.6459 69.0045 65.7394 69.6294Z" fill="#526EEB"/>
<path d="M59.278 72.6487L58.6741 68.626L64.0036 69.8833L59.278 72.6487Z" fill="white"/>
<path d="M83.6836 78.9055L41.7825 85.1826L42.1071 87.3496L84.0082 81.0725L83.6836 78.9055Z" fill="#EBEBEB"/>
<path d="M79.7092 80.2798L44.4397 85.5635L44.536 86.2064L79.8055 80.9228L79.7092 80.2798Z" fill="#C7C7C7"/>
<path d="M43.5948 85.3181L42.2241 85.5234L42.4295 86.8941L43.8002 86.6888L43.5948 85.3181Z" fill="#C7C7C7"/>
<path d="M42.8333 85.684L42.5754 85.7227L42.7074 86.6038L42.9653 86.5652L42.8333 85.684Z" fill="#A6A6A6"/>
<path d="M43.313 85.6059L43.0552 85.6445L43.1872 86.5257L43.445 86.4871L43.313 85.6059Z" fill="#A6A6A6"/>
<path d="M81.5824 79.6277L80.2117 79.833L80.417 81.2037L81.7877 80.9984L81.5824 79.6277Z" fill="#C7C7C7"/>
<path d="M80.7671 80.2763L80.4995 80.3164L80.5494 80.6493L80.817 80.6092L80.7671 80.2763Z" fill="#A6A6A6"/>
<path d="M81.1471 80.7805L80.7082 80.6287L80.6587 80.2954L81.0316 80.0215L81.1471 80.7805Z" fill="#A6A6A6"/>
<path d="M81.2493 80.1171L81.3021 80.0479C81.3806 80.105 81.4385 80.186 81.4671 80.2789C81.4864 80.3463 81.4902 80.4173 81.4782 80.4864C81.4662 80.5556 81.4387 80.6211 81.3978 80.6781L81.3252 80.6254C81.3543 80.5873 81.3752 80.5436 81.3866 80.497C81.3979 80.4504 81.3995 80.402 81.3912 80.3547C81.3847 80.3076 81.3688 80.2623 81.3445 80.2215C81.3201 80.1806 81.2877 80.1452 81.2493 80.1171Z" fill="#A6A6A6"/>
<path d="M81.2559 80.5723L81.18 80.5195C81.2099 80.4799 81.2229 80.43 81.2163 80.3809C81.2075 80.332 81.1803 80.2883 81.1404 80.2588L81.1932 80.1895C81.2225 80.2104 81.2473 80.237 81.2663 80.2676C81.2854 80.2982 81.2981 80.3323 81.304 80.3678C81.3098 80.4034 81.3085 80.4398 81.3003 80.4748C81.292 80.5099 81.2769 80.543 81.2559 80.5723Z" fill="#A6A6A6"/>
<path d="M83.2179 79.3816L81.8472 79.5869L82.0525 80.9576L83.4232 80.7523L83.2179 79.3816Z" fill="#C7C7C7"/>
<path d="M82.6613 79.6889L82.0967 79.7734L82.1813 80.338L82.7459 80.2535L82.6613 79.6889Z" fill="#A6A6A6"/>
<path d="M83.0956 80.0267L82.531 80.1113L82.6156 80.6759L83.1802 80.5914L83.0956 80.0267Z" fill="white"/>
<path d="M51.0938 84.8957C51.1095 85.0073 51.1513 85.1136 51.2159 85.2059L44.5334 86.1959L44.4377 85.5359L51.1202 84.5459C51.0846 84.6589 51.0756 84.7786 51.0938 84.8957Z" fill="#A6A6A6"/>
<path d="M52.5624 84.6745C52.5769 84.7711 52.5721 84.8697 52.5485 84.9645C52.5248 85.0594 52.4826 85.1486 52.4243 85.2271C52.3661 85.3056 52.2929 85.3718 52.209 85.4219C52.1251 85.4721 52.0321 85.5051 51.9354 85.5193C51.7981 85.5402 51.6577 85.5219 51.5304 85.4664C51.4031 85.4109 51.2941 85.3206 51.216 85.2058C51.1513 85.1135 51.1095 85.0072 51.0939 84.8956C51.0786 84.785 51.0876 84.6723 51.1203 84.5656C51.1614 84.4322 51.2394 84.3131 51.3453 84.2222C51.4513 84.1313 51.5808 84.0722 51.7189 84.0519C51.857 84.0315 51.998 84.0506 52.1257 84.1071C52.2534 84.1636 52.3624 84.255 52.4403 84.3709C52.5026 84.462 52.5442 84.5656 52.5624 84.6745Z" fill="#A6A6A6"/>
<path d="M28.2118 138.695C27.0502 138.151 25.5124 137.949 24.3574 138.576C24.3112 138.6 24.3574 138.666 24.3904 138.662C25.6518 138.59 26.9173 138.652 28.1656 138.847C28.1755 138.85 28.186 138.851 28.1964 138.85C28.2067 138.849 28.2168 138.846 28.226 138.841C28.2352 138.836 28.2433 138.83 28.25 138.822C28.2566 138.813 28.2615 138.804 28.2646 138.794C28.2676 138.784 28.2686 138.774 28.2676 138.763C28.2666 138.753 28.2636 138.743 28.2587 138.734C28.2538 138.725 28.2471 138.716 28.2391 138.71C28.231 138.703 28.2217 138.698 28.2118 138.695Z" fill="#263238"/>
<path d="M28.951 139.454C27.7927 138.91 26.2549 138.708 25.0966 139.335C25.0537 139.358 25.0966 139.421 25.1296 139.421C26.3921 139.347 27.6589 139.409 28.9081 139.606C28.9276 139.609 28.9476 139.606 28.9644 139.595C28.9812 139.585 28.9935 139.569 28.9989 139.55C29.0043 139.53 29.0023 139.51 28.9935 139.492C28.9846 139.475 28.9695 139.461 28.951 139.454Z" fill="#263238"/>
<path d="M29.7001 140.213C28.5418 139.668 27.004 139.467 25.8457 140.094C25.8028 140.117 25.8457 140.18 25.8787 140.18C27.1411 140.104 28.4081 140.166 29.6572 140.365C29.6766 140.368 29.6967 140.364 29.7135 140.354C29.7302 140.344 29.7425 140.327 29.7479 140.308C29.7533 140.289 29.7514 140.269 29.7425 140.251C29.7337 140.234 29.7185 140.22 29.7001 140.213Z" fill="#263238"/>
<path d="M30.4359 140.969C29.2776 140.427 27.7365 140.226 26.5815 140.853C26.5353 140.876 26.5815 140.939 26.6145 140.936C27.876 140.863 29.1417 140.926 30.3897 141.124C30.4087 141.125 30.4277 141.121 30.4436 141.11C30.4594 141.099 30.471 141.083 30.4764 141.065C30.4819 141.047 30.4808 141.027 30.4734 141.01C30.466 140.992 30.4528 140.977 30.4359 140.969Z" fill="#263238"/>
<path d="M16.2788 134.052C16.0973 134.785 15.9257 135.508 15.764 136.207C15.6617 136.646 15.566 137.072 15.4736 137.484C14.8796 140.124 14.4836 142.187 14.6882 142.388C15.269 143.012 33.5411 147.823 34.2341 147.78C34.9271 147.737 34.8479 145.748 34.2869 144.998C33.9569 144.54 31.5314 142.523 29.69 141.015C28.5053 140.048 27.5582 139.286 27.5582 139.286L28.1753 137.154L30.8846 127.426L18.8099 124.274C18.8099 124.274 17.4305 129.287 16.2788 134.052Z" fill="#D3766A"/>
<path d="M34.3728 147.84C33.9174 147.87 26.0799 145.89 20.4105 144.306C19.0905 143.939 17.9025 143.593 16.9422 143.316C15.6222 142.91 14.7345 142.606 14.6124 142.474C14.3418 142.184 15.1965 138.214 16.1898 134.046L28.2117 137.135L27.5946 139.26C27.5946 139.26 33.8448 144.259 34.4157 145.018C34.9866 145.777 35.0724 147.787 34.3728 147.84Z" fill="#526EEB"/>
<path d="M34.3002 147.031C31.2213 146.15 18.7308 142.89 15.6255 142.253C15.5991 142.253 15.5958 142.253 15.6255 142.269C18.6549 143.21 31.1718 146.371 34.2936 147.081C34.353 147.094 34.3629 147.048 34.3002 147.031Z" fill="#263238"/>
<path d="M29.9278 136.62C30.0631 136.554 34.7722 118.543 36.4189 112.223C38.7949 103.108 41.095 88.2486 41.788 85.1631C43.2114 81.5977 44.1783 77.8666 44.6656 74.0586H29.6902C29.6902 74.0586 25.7632 81.5694 27.7894 86.8791C27.9742 87.3642 25.1725 106.131 23.7238 109.171C22.4731 111.811 15.718 132.792 15.718 132.792L29.9278 136.62Z" fill="#37474F"/>
<path d="M29.7923 133.356C29.4326 133.207 29.0432 133.125 28.6703 133.026C28.2974 132.927 27.8816 132.792 27.4856 132.696C26.6903 132.481 25.8917 132.277 25.0964 132.072C23.5058 131.66 21.9053 131.267 20.3081 130.878C19.8725 130.769 19.4336 130.666 18.9881 130.564C18.5568 130.439 18.115 130.352 17.6681 130.307C17.662 130.307 17.6561 130.309 17.6518 130.313C17.6475 130.318 17.645 130.324 17.645 130.33C17.645 130.336 17.6475 130.342 17.6518 130.346C17.6561 130.35 17.662 130.353 17.6681 130.353C18.0272 130.504 18.398 130.625 18.7769 130.716L19.9649 131.046C20.747 131.254 21.5291 131.468 22.3145 131.673C23.8919 132.082 25.4693 132.501 27.0566 132.887C27.5054 132.996 27.9542 133.108 28.4096 133.217C28.865 133.326 29.3105 133.448 29.7659 133.501C29.8121 133.468 29.8583 133.382 29.7923 133.356Z" fill="#263238"/>
<path d="M37.8676 84.2415C37.5772 85.8024 37.3396 87.3699 37.0822 88.9341C36.9502 89.7327 36.7753 90.5214 36.6433 91.32C36.5113 92.1186 36.3859 92.8842 36.2605 93.6696C35.7545 96.8178 35.2518 99.9682 34.7524 103.121C34.5016 104.685 34.2497 106.249 33.9967 107.813C33.7644 109.354 33.4493 110.881 33.0529 112.387C32.6404 113.892 32.1553 115.377 31.6966 116.869C31.2379 118.36 30.7561 119.924 30.2875 121.456C29.3536 124.495 28.3867 127.531 27.5485 130.6C27.4462 130.979 27.3406 131.362 27.2185 131.742C27.2171 131.75 27.2189 131.759 27.2237 131.767C27.2285 131.774 27.2358 131.78 27.2443 131.782C27.2529 131.785 27.262 131.784 27.27 131.78C27.278 131.776 27.2843 131.77 27.2878 131.762C28.3207 128.749 29.2678 125.709 30.238 122.673C31.2082 119.637 32.1619 116.631 33.0628 113.592C33.5068 112.113 33.8595 110.609 34.1188 109.087C34.3861 107.52 34.6204 105.949 34.8712 104.381C35.3838 101.233 35.892 98.0828 36.3958 94.9302C36.6433 93.3825 36.9172 91.8315 37.1086 90.2772C37.3066 88.6635 37.5838 87.063 37.8247 85.4559C37.8841 85.0632 37.9402 84.6705 37.993 84.2745C38.0062 84.192 37.8841 84.1491 37.8676 84.2415Z" fill="#263238"/>
<path d="M50.6847 139.771C49.4274 139.537 47.8863 139.728 46.926 140.626C46.8897 140.662 46.926 140.715 46.9788 140.702C48.1815 140.309 49.4228 140.047 50.6814 139.92C50.6967 139.914 50.71 139.905 50.7196 139.892C50.7291 139.878 50.7344 139.863 50.7348 139.847C50.7351 139.83 50.7305 139.815 50.7216 139.801C50.7126 139.788 50.6998 139.777 50.6847 139.771Z" fill="#263238"/>
<path d="M51.5954 140.319C50.3348 140.085 48.797 140.276 47.8334 141.174C47.7971 141.21 47.8334 141.26 47.8895 141.25C49.0914 140.861 50.3316 140.602 51.5888 140.477C51.5992 140.478 51.6096 140.476 51.6194 140.473C51.6292 140.469 51.6381 140.464 51.6458 140.457C51.6535 140.45 51.6597 140.441 51.664 140.432C51.6684 140.422 51.6709 140.412 51.6713 140.402C51.6718 140.391 51.6701 140.381 51.6666 140.371C51.663 140.361 51.6575 140.352 51.6505 140.345C51.6434 140.337 51.6349 140.331 51.6255 140.326C51.616 140.322 51.6058 140.32 51.5954 140.319Z" fill="#263238"/>
<path d="M52.5031 140.863C51.2458 140.629 49.7047 140.824 48.7444 141.721C48.7048 141.754 48.7444 141.807 48.7972 141.794C50.0003 141.406 51.2416 141.148 52.4998 141.025C52.5185 141.022 52.5355 141.012 52.5478 140.998C52.5602 140.983 52.5672 140.965 52.5676 140.946C52.5679 140.927 52.5617 140.908 52.55 140.893C52.5382 140.878 52.5216 140.868 52.5031 140.863Z" fill="#263238"/>
<path d="M53.4106 141.411C52.1533 141.177 50.6122 141.372 49.6519 142.269C49.6156 142.302 49.6519 142.355 49.7047 142.342C50.9082 141.955 52.1493 141.696 53.4073 141.57C53.4177 141.57 53.428 141.568 53.4377 141.564C53.4474 141.561 53.4562 141.555 53.4637 141.548C53.4712 141.54 53.4773 141.532 53.4814 141.522C53.4856 141.513 53.4879 141.503 53.4881 141.492C53.4883 141.482 53.4865 141.471 53.4827 141.462C53.4789 141.452 53.4733 141.443 53.4661 141.436C53.4589 141.428 53.4503 141.422 53.4407 141.418C53.4312 141.414 53.421 141.412 53.4106 141.411Z" fill="#263238"/>
<path d="M37.9665 138.27C37.9665 139.026 37.9929 139.768 38.0127 140.487C38.0127 140.936 38.0391 141.372 38.0556 141.807C38.148 144.523 38.2932 146.606 38.5275 146.757C39.2469 147.213 58.1427 147.269 58.8027 147.051C59.4627 146.833 58.8852 144.933 58.1427 144.345C57.6972 143.992 54.8427 142.646 52.6911 141.649L50.1963 140.511L50.2557 138.293L50.4273 128.198H37.95C37.95 128.198 37.884 133.383 37.9665 138.27Z" fill="#D3766A"/>
<path d="M58.9511 147.067C58.5188 147.209 50.4371 147.265 44.5499 147.163C43.187 147.137 41.9429 147.104 40.9199 147.064C39.5372 147.005 38.6099 146.932 38.4548 146.836C38.1248 146.622 37.9499 142.563 37.8608 138.283L50.2754 138.243L50.216 140.481C50.216 140.481 57.5255 143.748 58.268 144.338C59.0105 144.929 59.6144 146.85 58.9511 147.067Z" fill="#526EEB"/>
<path d="M58.6774 146.305C55.4764 146.226 42.5701 146.216 39.4021 146.381C39.3757 146.381 39.3757 146.401 39.4021 146.401C42.5701 146.546 55.4797 146.454 58.6774 146.355C58.7401 146.355 58.7401 146.305 58.6774 146.305Z" fill="#263238"/>
<path d="M35.7391 87.4297C35.7391 87.4297 37.8742 108.365 37.9072 108.86C37.9072 109.051 36.9898 136.87 36.9898 136.87H51.1039C51.1039 136.87 50.599 110.662 50.3878 107.705C50.3614 107.375 49.4506 86.08 45.3421 74.0449H29.6704C29.6704 74.0449 29.8057 81.1234 33.0232 86.2549C33.9497 86.5955 34.8565 86.9877 35.7391 87.4297Z" fill="#37474F"/>
<path d="M50.2127 134.227C49.8266 134.171 49.4273 134.184 49.0379 134.164C48.6485 134.144 48.2162 134.125 47.8037 134.118C46.982 134.098 46.1537 134.092 45.3386 134.082C43.6886 134.065 42.0386 134.065 40.3886 134.082H39.0422C38.589 134.063 38.135 134.087 37.6859 134.151C37.6798 134.151 37.6739 134.153 37.6696 134.158C37.6653 134.162 37.6628 134.168 37.6628 134.174C37.6628 134.18 37.6653 134.186 37.6696 134.19C37.6739 134.195 37.6798 134.197 37.6859 134.197C38.0709 134.26 38.4608 134.289 38.8508 134.283C39.2633 134.3 39.6725 134.309 40.085 134.319C40.8935 134.336 41.7053 134.356 42.5138 134.366C44.1473 134.385 45.7775 134.412 47.411 134.408C47.873 134.408 48.335 134.408 48.797 134.389C49.259 134.369 49.7276 134.389 50.1863 134.339C50.2556 134.333 50.282 134.237 50.2127 134.227Z" fill="#263238"/>
<path d="M46.2595 76.9491C46.2595 76.9227 46.21 76.9293 46.2133 76.9491C46.2727 77.8434 46.4212 78.8169 46.0252 79.6551C45.6754 80.4009 45.0088 80.8167 44.3983 81.3051C44.3785 81.3216 44.3983 81.3513 44.4214 81.3447C45.2365 81.0972 46.0483 80.6451 46.3684 79.8135C46.7281 78.8961 46.5301 77.8797 46.2595 76.9491Z" fill="#263238"/>
<path d="M39.4615 86.9715C38.8084 86.9506 38.1547 86.9726 37.5046 87.0375C36.8665 87.0716 36.2268 87.0595 35.5906 87.0012C35.2708 86.9693 34.9534 86.9175 34.6402 86.8461C34.3102 86.7702 34.0066 86.6481 33.6865 86.559C33.3947 86.4956 33.0916 86.5069 32.8054 86.592C32.4665 86.6681 32.124 86.7265 31.7791 86.7669C30.9936 86.8834 30.1969 86.9045 29.4064 86.8296C29.3767 86.8296 29.3635 86.8692 29.4064 86.8758C30.0703 87.017 30.7472 87.0878 31.426 87.087C31.773 87.0793 32.1192 87.0484 32.4622 86.9946C32.7837 86.9014 33.1175 86.858 33.4522 86.8659C33.7738 86.9579 34.09 87.0681 34.3993 87.1959C34.7157 87.2834 35.0376 87.3495 35.3629 87.3939C36.0193 87.4791 36.6825 87.499 37.3429 87.4533C38.0821 87.4364 38.8162 87.3255 39.5275 87.1233C39.5476 87.1145 39.5634 87.0981 39.5715 87.0777C39.5795 87.0573 39.5791 87.0345 39.5704 87.0144C39.5616 86.9942 39.5452 86.9784 39.5248 86.9704C39.5044 86.9623 39.4816 86.9627 39.4615 86.9715Z" fill="#263238"/>
<path d="M37.9505 107.705C37.944 107.703 37.9368 107.703 37.9303 107.705C37.9288 107.708 37.928 107.711 37.928 107.715C37.928 107.718 37.9288 107.722 37.9303 107.725V107.774C37.9333 107.776 37.9368 107.777 37.9404 107.777C37.944 107.777 37.9475 107.776 37.9505 107.774V107.725C37.9529 107.718 37.9529 107.711 37.9505 107.705Z" fill="#263238"/>
<path d="M37.5705 104.101C37.4451 102.746 37.312 101.39 37.1712 100.032C36.8841 97.3198 36.6168 94.6039 36.3363 91.8913C36.1779 90.3535 36.0624 88.7992 35.8116 87.2713C35.8116 87.2625 35.8081 87.2541 35.8019 87.2479C35.7958 87.2418 35.7874 87.2383 35.7786 87.2383C35.7699 87.2383 35.7615 87.2418 35.7553 87.2479C35.7491 87.2541 35.7456 87.2625 35.7456 87.2713C35.7687 88.6309 35.9139 89.9905 36.0294 91.3468C36.1449 92.7031 36.2637 94.0594 36.3924 95.419C36.6465 98.1316 36.8874 100.847 37.2075 103.557C37.2977 104.325 37.3934 105.095 37.4946 105.867C37.5936 106.636 37.7289 107.405 37.8246 108.177C37.8246 108.206 37.8774 108.206 37.8741 108.177C37.7586 106.817 37.6926 105.458 37.5705 104.101Z" fill="#263238"/>
<path d="M37.2901 56.0768C37.3825 56.3738 38.9632 58.2317 40.3393 58.0568C40.7848 58.0007 40.6 55.5455 40.6 55.5455L40.6297 55.3607L41.0158 52.7768L37.894 51.074L37.4452 50.8496C37.4452 50.8496 37.3858 51.5624 37.3198 52.4534V52.5788C37.3198 52.6316 37.3198 52.6778 37.3198 52.724C37.3198 52.856 37.2967 52.9946 37.2901 53.1266C37.2835 53.2586 37.2901 53.3312 37.2901 53.4401C37.2901 53.549 37.2901 53.6546 37.2901 53.7701C37.237 54.5381 37.237 55.3088 37.2901 56.0768Z" fill="#D3766A"/>
<path d="M37.29 52.47C37.5966 53.1648 38.0505 53.7846 38.6203 54.2866C39.1901 54.7886 39.8622 55.1608 40.59 55.3773L40.9761 52.7934L37.8543 51.0906L37.4055 50.8662C37.4055 50.8662 37.3692 51.5757 37.29 52.47Z" fill="#263238"/>
<path d="M44.6093 48.4767C45.5762 52.9581 43.022 54.0867 42.0353 54.2484C41.1509 54.3969 38.1479 54.9678 36.7223 50.6184C35.2967 46.269 37.0754 44.3946 39.0587 43.8567C41.042 43.3188 43.6424 43.9953 44.6093 48.4767Z" fill="#D3766A"/>
<path d="M44.1804 47.5559C44.0715 47.5559 43.9692 47.5559 43.8504 47.5361C43.7344 47.5447 43.6187 47.5158 43.5204 47.4536C43.495 47.428 43.4786 47.3948 43.4739 47.359C43.4691 47.3232 43.4762 47.2869 43.494 47.2556C43.5384 47.1992 43.5969 47.1555 43.6635 47.1289C43.7301 47.1022 43.8025 47.0936 43.8735 47.1038C44.0211 47.1049 44.1632 47.1601 44.2728 47.2589C44.2957 47.2814 44.312 47.3098 44.3198 47.341C44.3277 47.3721 44.3268 47.4048 44.3172 47.4355C44.3077 47.4662 44.2899 47.4937 44.2657 47.5149C44.2416 47.5361 44.2121 47.5503 44.1804 47.5559Z" fill="#263238"/>
<path d="M41.273 48.1364C41.3741 48.106 41.4733 48.0696 41.57 48.0275C41.6794 48.0034 41.7778 47.9443 41.8505 47.8592C41.8684 47.8279 41.8755 47.7916 41.8707 47.7558C41.8659 47.72 41.8496 47.6868 41.8241 47.6612C41.7651 47.62 41.6962 47.5949 41.6244 47.5885C41.5526 47.5822 41.4804 47.5947 41.4149 47.6249C41.277 47.669 41.1597 47.7616 41.0849 47.8856C41.0702 47.9147 41.064 47.9474 41.0668 47.9798C41.0697 48.0123 41.0816 48.0433 41.1011 48.0694C41.1207 48.0955 41.1472 48.1156 41.1775 48.1274C41.2079 48.1393 41.241 48.1424 41.273 48.1364Z" fill="#263238"/>
<path d="M42.1014 49.1699C42.1014 49.1699 42.0783 49.1897 42.0816 49.2029C42.1443 49.5098 42.1608 49.8629 41.9001 50.018C41.9001 50.018 41.9001 50.0378 41.9001 50.0345C42.24 49.9157 42.207 49.4372 42.1014 49.1699Z" fill="#263238"/>
<path d="M41.7715 48.8822C41.2699 48.9284 41.3986 49.925 41.8639 49.8722C42.3292 49.8194 42.1939 48.8393 41.7715 48.8822Z" fill="#263238"/>
<path d="M41.5801 48.9587C41.5009 49.028 41.4283 49.1402 41.3227 49.1633C41.2171 49.1864 41.0983 49.0973 40.9927 49.0082C41.0158 49.1996 41.1115 49.3877 41.3227 49.3877C41.5339 49.3877 41.6263 49.2029 41.6527 49.0049C41.6527 48.9818 41.6164 48.9323 41.5801 48.9587Z" fill="#263238"/>
<path d="M43.7448 48.7734C43.7448 48.7734 43.7679 48.7734 43.7712 48.7965C43.7976 49.1067 43.8801 49.4565 44.1738 49.5291C43.824 49.539 43.7184 49.0704 43.7448 48.7734Z" fill="#263238"/>
<path d="M43.9824 48.4171C44.4741 48.3181 44.6424 49.3147 44.1771 49.4071C43.7118 49.4995 43.56 48.5095 43.9824 48.4171Z" fill="#263238"/>
<path d="M44.2001 48.4471C44.2859 48.49 44.3783 48.5725 44.474 48.5626C44.5697 48.5527 44.6489 48.4339 44.7017 48.3184C44.738 48.5098 44.7017 48.7177 44.5301 48.7837C44.3585 48.8497 44.2199 48.6979 44.144 48.5164C44.144 48.49 44.1638 48.4306 44.2001 48.4471Z" fill="#263238"/>
<path d="M43.5369 50.2522C43.5369 50.2522 43.6656 50.7043 43.6953 50.9122C43.6953 50.932 43.6491 50.9485 43.5732 50.965C43.391 51.0252 43.1956 51.034 43.0087 50.9903C42.8218 50.9467 42.6506 50.8523 42.5139 50.7175C42.4941 50.701 42.5139 50.6746 42.5403 50.6845C42.8463 50.8378 43.194 50.8864 43.5303 50.8231C43.5303 50.7604 43.2861 50.0542 43.3191 50.0476C43.4908 50.0384 43.6629 50.0529 43.8306 50.0905C43.5897 49.1401 43.2003 48.2359 42.9759 47.2855C42.9759 47.2492 43.0155 47.2327 43.0287 47.2624C43.478 48.2144 43.8297 49.2095 44.0781 50.2324C44.1012 50.3776 43.6293 50.2753 43.5369 50.2522Z" fill="#263238"/>
<path d="M43.5337 50.8193C43.4483 51.0212 43.3118 51.1975 43.1377 51.3308C43.0415 51.4003 42.9263 51.4383 42.8077 51.4397C42.547 51.4397 42.4777 51.2153 42.4777 51.0107C42.4742 50.8997 42.4853 50.7888 42.5107 50.6807C42.8281 50.8351 43.1866 50.8837 43.5337 50.8193Z" fill="#263238"/>
<path d="M43.1375 51.3215C43.0414 51.391 42.9261 51.429 42.8075 51.4304C42.5468 51.4304 42.4775 51.206 42.4775 51.0014C42.6075 50.9737 42.7429 50.9902 42.8625 51.0482C42.982 51.1061 43.0788 51.2023 43.1375 51.3215Z" fill="#FF98B9"/>
<path d="M45.7051 69.8639L47.0845 77.246C47.0845 77.246 30.7363 77.4737 26.8984 77.2031C26.8984 77.2031 30.9112 61.571 35.0395 57.0896C37.1053 54.8456 39.5275 55.0139 41.0719 56.5814C41.4646 56.9774 46.1275 63.1418 46.6192 65.4914C47.0482 67.577 45.7051 69.8639 45.7051 69.8639Z" fill="#526EEB"/>
<path d="M38.2075 58.5281C38.1096 58.7375 38.0418 58.9597 38.0062 59.1881C38.1569 59.0074 38.2814 58.8064 38.3758 58.5908C38.4724 58.3809 38.5401 58.1589 38.5771 57.9308C38.4271 58.112 38.3027 58.313 38.2075 58.5281ZM35.8645 67.25C35.7666 67.4594 35.6988 67.6816 35.6632 67.91C35.8141 67.73 35.9375 67.5288 36.0295 67.3127C36.1271 67.1029 36.1959 66.8809 36.2341 66.6527C36.0823 66.8326 35.9578 67.0339 35.8645 67.25ZM45.9559 71.21C45.9196 71.276 45.8866 71.3387 45.8569 71.4047C45.7593 71.6145 45.6905 71.8365 45.6523 72.0647C45.799 71.8921 45.9192 71.6986 46.0087 71.4905L45.9559 71.21ZM33.6403 76.5131C33.542 76.7224 33.4742 76.9446 33.439 77.1731C33.5892 76.9915 33.7126 76.7892 33.8053 76.5725C33.9048 76.3635 33.9737 76.1412 34.0099 75.9125C33.8595 76.091 33.7351 76.2899 33.6403 76.5032V76.5131ZM43.1938 65.1248C43.0955 65.3341 43.0277 65.5563 42.9925 65.7848C43.1427 65.6032 43.2661 65.4009 43.3588 65.1842C43.4583 64.9752 43.5272 64.7529 43.5634 64.5242C43.413 64.7027 43.2886 64.9016 43.1938 65.1149V65.1248ZM38.4946 75.2888C38.3966 75.4984 38.3277 75.7205 38.29 75.9488C38.4412 75.7673 38.5657 75.565 38.6596 75.3482C38.7577 75.1386 38.8265 74.9166 38.8642 74.6882C38.7138 74.8667 38.5894 75.0656 38.4946 75.2789V75.2888ZM29.0071 70.8701C28.9092 71.0795 28.8414 71.3017 28.8058 71.5301C28.9552 71.3545 29.0796 71.1591 29.1754 70.9493C29.272 70.7394 29.3397 70.5174 29.3767 70.2893C29.228 70.4654 29.1037 70.6608 29.0071 70.8701ZM31.7131 63.6101C31.6152 63.8195 31.5474 64.0417 31.5118 64.2701C31.8069 63.9007 32.0034 63.4624 32.0827 62.9963C31.9307 63.1809 31.8062 63.3866 31.7131 63.6068V63.6101ZM40.5241 61.4618C40.3149 61.3628 40.0927 61.2939 39.8641 61.2572C40.2314 61.5558 40.6707 61.7527 41.1379 61.8281C40.9516 61.6769 40.745 61.5525 40.5241 61.4585V61.4618ZM42.5041 69.1409C42.2949 69.0426 42.0726 68.9748 41.8441 68.9396C42.0265 69.0897 42.2286 69.2141 42.4447 69.3092C42.6539 69.4076 42.8762 69.4754 43.1047 69.5105C42.9195 69.3585 42.714 69.233 42.4942 69.1376L42.5041 69.1409ZM42.4513 77.1797C42.4997 77.2222 42.5503 77.2618 42.6031 77.2985H42.9001C42.7528 77.2393 42.5987 77.1983 42.4414 77.1764L42.4513 77.1797ZM33.6304 70.5434C33.4214 70.444 33.1991 70.3751 32.9704 70.3388C33.152 70.49 33.3542 70.6145 33.571 70.7084C33.7806 70.8065 34.0027 70.8753 34.231 70.913C34.0466 70.7599 33.841 70.6343 33.6205 70.5401L33.6304 70.5434ZM46.2001 66.7088C46.1198 66.4876 46.0087 66.2787 45.8701 66.0884C45.9169 66.5591 46.0877 67.0089 46.3651 67.3919C46.3427 67.1576 46.2872 66.9276 46.2001 66.7088ZM46.0252 75.5693C45.9455 75.3478 45.8344 75.1388 45.6952 74.9489C45.7166 75.1831 45.771 75.4131 45.8569 75.632C45.9366 75.8536 46.0478 76.0625 46.1869 76.2524C46.1659 76.0182 46.1115 75.7881 46.0252 75.5693ZM35.9074 62.6333C35.8291 62.4112 35.7179 62.2021 35.5774 62.0129C35.5999 62.2473 35.6554 62.4773 35.7424 62.696C35.8219 62.9177 35.9331 63.1266 36.0724 63.3164C36.052 63.0818 35.9964 62.8515 35.9074 62.6333ZM39.0391 70.5533C38.9595 70.3318 38.8483 70.1228 38.7091 69.9329C38.7305 70.1671 38.7849 70.3971 38.8708 70.616C38.9505 70.8376 39.0617 71.0465 39.2008 71.2364C39.1789 71.0055 39.1245 70.7789 39.0391 70.5632V70.5533ZM30.7297 73.8533C30.6494 73.6321 30.5383 73.4232 30.3997 73.2329C30.4465 73.7036 30.6173 74.1534 30.8947 74.5364C30.8708 74.3077 30.8153 74.0833 30.7297 73.8698V73.8533ZM36.3001 56.0234L36.1582 56.1158C36.2227 56.2551 36.3024 56.3868 36.3958 56.5085C36.3828 56.3437 36.3507 56.1809 36.3001 56.0234ZM33.7855 59.5148C33.564 59.5945 33.355 59.7057 33.1651 59.8448C33.6354 59.7965 34.0848 59.6259 34.4686 59.3498C34.2388 59.3735 34.0133 59.429 33.7987 59.5148H33.7855ZM42.382 73.3154C42.1599 73.3938 41.9507 73.505 41.7616 73.6454C41.996 73.623 42.226 73.5674 42.4447 73.4804C42.6669 73.4021 42.876 73.2909 43.0651 73.1504C42.8353 73.1741 42.6098 73.2296 42.3952 73.3154H42.382ZM31.162 67.4546C30.9405 67.5343 30.7315 67.6455 30.5416 67.7846C30.7758 67.7633 31.0058 67.7088 31.2247 67.6229C31.4463 67.5433 31.6552 67.4321 31.8451 67.2929C31.6142 67.3149 31.3876 67.3693 31.1719 67.4546H31.162ZM35.5345 73.3154C35.3124 73.3938 35.1032 73.505 34.9141 73.6454C35.1485 73.623 35.3785 73.5674 35.5972 73.4804C35.8194 73.4021 36.0285 73.2909 36.2176 73.1504C35.9866 73.1735 35.7599 73.229 35.5444 73.3154H35.5345ZM28.1095 76.1633C27.8893 76.2438 27.6816 76.3549 27.4924 76.4933C27.9684 76.4479 28.4239 76.2771 28.8124 75.9983C28.5748 76.0201 28.3414 76.0757 28.1194 76.1633H28.1095ZM39.1876 65.204C38.9661 65.2837 38.7571 65.3949 38.5672 65.534C38.8016 65.5116 39.0316 65.456 39.2503 65.369C39.472 65.2895 39.6809 65.1784 39.8707 65.039C39.6395 65.0608 39.4127 65.1164 39.1975 65.204H39.1876ZM44.5699 61.475C44.3668 61.5591 44.1759 61.6701 44.0023 61.805C44.2284 61.7837 44.4505 61.7315 44.6623 61.6499L44.5699 61.475Z" fill="white"/>
<path d="M37.8444 59.5713C37.9434 62.8449 38.7915 72.1608 40.5042 74.4543C43.2828 78.1635 46.4442 81.4965 48.015 82.6119C49.2723 83.5095 56.1363 78.4704 54.7833 77.3319C52.8462 75.6819 47.619 70.4019 46.7181 69.1578C46.2429 68.4978 43.2003 62.0364 41.5371 58.2876C40.1049 55.047 37.7322 55.7697 37.8444 59.5713Z" fill="#D3766A"/>
<path d="M60.1986 86.1295C60.0349 86.3377 59.8123 86.4918 59.5598 86.5719C59.3073 86.6519 59.0366 86.6541 58.7829 86.5783C58.7545 87.0282 58.5701 87.4542 58.2615 87.7828C57.6906 88.3339 56.5752 87.6805 56.5752 87.6805C56.4484 88.1408 56.1863 88.5524 55.8228 88.8619C55.2222 89.3371 54.0045 88.8355 54.0045 88.8355C53.6536 89.1951 53.1851 89.4165 52.6845 89.4592C51.3645 89.5219 50.1831 87.8389 49.434 86.7763C48.6849 85.7137 47.553 81.9979 47.2659 81.3115L53.4831 76.2295C53.4831 76.2295 57.4431 77.731 59.466 81.6382C60.06 82.7767 60.786 85.3012 60.1986 86.1295Z" fill="#D3766A"/>
<path d="M58.8589 86.4593C58.5289 85.0766 57.7963 83.8688 57.1396 82.6214C57.1396 82.595 57.0835 82.6214 57.0967 82.6445C57.7567 83.8787 58.1791 85.2284 58.7962 86.4824C58.8127 86.5121 58.8655 86.489 58.8589 86.4593Z" fill="#263238"/>
<path d="M56.6478 87.595C56.5401 87.2884 56.3937 86.9967 56.2122 86.7271C56.0373 86.4334 55.8558 86.1397 55.6743 85.8493C55.3047 85.2718 54.9186 84.6976 54.5193 84.1399C54.5028 84.1135 54.4599 84.1399 54.4764 84.163C54.846 84.7416 55.2024 85.3268 55.5456 85.9186C55.7172 86.2156 55.8756 86.5159 56.0538 86.8129C56.1927 87.1063 56.3642 87.3831 56.5653 87.6379C56.5728 87.6448 56.5822 87.6492 56.5922 87.6505C56.6023 87.6518 56.6125 87.65 56.6215 87.6453C56.6305 87.6406 56.6379 87.6333 56.6426 87.6243C56.6473 87.6153 56.6491 87.6051 56.6478 87.595Z" fill="#263238"/>
<path d="M53.9881 88.8126C53.8886 88.5367 53.7424 88.2799 53.5557 88.0536C53.3808 87.7929 53.2257 87.5289 53.0376 87.2682C52.7076 86.7435 52.3545 86.2155 52.0311 85.6809C52.0311 85.6545 51.9717 85.6809 51.9882 85.704C52.3182 86.2485 52.6482 86.8029 52.9782 87.354C53.1399 87.6213 53.3082 87.8853 53.4699 88.1526C53.5978 88.4085 53.7699 88.6397 53.9782 88.8357C53.9804 88.835 53.9825 88.8338 53.9843 88.8322C53.9861 88.8306 53.9875 88.8287 53.9884 88.8265C53.9894 88.8243 53.9898 88.8219 53.9898 88.8195C53.9897 88.8171 53.9891 88.8148 53.9881 88.8126Z" fill="#263238"/>
<path d="M43.9066 79.3613L50.4901 72.6161C50.4901 72.6161 47.1901 69.6263 46.408 68.3261C45.6259 67.0259 42.7417 60.8516 41.7484 58.304C40.7551 55.7564 38.1382 54.7796 37.6762 59.0696C37.2142 63.3596 39.082 72.8735 39.6562 73.8701C40.2304 74.8667 43.9066 79.3613 43.9066 79.3613Z" fill="#526EEB"/>
<path d="M38.2074 58.528C38.1094 58.7373 38.0417 58.9596 38.0061 59.188C38.1568 59.0073 38.2812 58.8062 38.3757 58.5907C38.4722 58.3807 38.5399 58.1587 38.577 57.9307C38.427 58.1119 38.3026 58.3129 38.2074 58.528ZM45.8568 71.398C45.7592 71.6078 45.6904 71.8298 45.6522 72.058C45.8034 71.8776 45.9278 71.6764 46.0218 71.4607C46.1194 71.2509 46.1882 71.0289 46.2264 70.8007C46.0795 70.9804 45.9594 71.1805 45.87 71.3947L45.8568 71.398ZM43.1937 65.128C43.0953 65.3372 43.0275 65.5595 42.9924 65.788C43.1426 65.6063 43.2659 65.404 43.3587 65.1874C43.4582 64.9783 43.5271 64.756 43.5633 64.5274C43.4132 64.7049 43.2887 64.9026 43.1937 65.1148V65.128ZM40.524 61.4716C40.3148 61.3725 40.0926 61.3037 39.864 61.267C40.2313 61.5655 40.6705 61.7624 41.1378 61.8379C40.9521 61.6831 40.7454 61.5554 40.524 61.4584V61.4716ZM42.504 69.1507C42.2948 69.0523 42.0725 68.9845 41.844 68.9494C42.0264 69.0994 42.2285 69.2238 42.4446 69.319C42.6538 69.4173 42.8761 69.4851 43.1046 69.5203C42.92 69.3648 42.7145 69.2359 42.4941 69.1375L42.504 69.1507ZM49.104 72.4045C48.8946 72.3065 48.6724 72.2387 48.444 72.2032C48.6239 72.355 48.8252 72.4795 49.0413 72.5728C49.2507 72.6707 49.4729 72.7385 49.7013 72.7741C49.5179 72.6186 49.3135 72.4898 49.0941 72.3913L49.104 72.4045ZM43.1244 77.3908C42.9152 77.2924 42.6929 77.2246 42.4644 77.1895C42.8338 77.4846 43.2721 77.681 43.7382 77.7604C43.5504 77.6026 43.3402 77.4736 43.1145 77.3776L43.1244 77.3908ZM46.035 75.5791C45.9553 75.3575 45.8442 75.1486 45.705 74.9587C45.7264 75.1929 45.7808 75.4228 45.8667 75.6418C45.9464 75.8633 46.0575 76.0723 46.1967 76.2622C46.1735 76.0241 46.1157 75.7906 46.0251 75.5692L46.035 75.5791ZM39.039 70.5631C38.9593 70.3415 38.8482 70.1326 38.709 69.9427C38.7304 70.1769 38.7848 70.4068 38.8707 70.6258C38.9504 70.8473 39.0615 71.0563 39.2007 71.2462C39.1797 71.0119 39.1253 70.7819 39.039 70.5631ZM42.3951 73.3153C42.173 73.3936 41.9638 73.5048 41.7747 73.6453C42.0091 73.6228 42.239 73.5673 42.4578 73.4803C42.68 73.4019 42.8891 73.2907 43.0782 73.1503C42.8439 73.1727 42.6139 73.2283 42.3951 73.3153ZM39.1974 65.2039C38.9759 65.2835 38.7669 65.3947 38.577 65.5339C38.8114 65.5114 39.0413 65.4559 39.2601 65.3689C39.4817 65.2893 39.6907 65.1782 39.8805 65.0389C39.6459 65.0597 39.4157 65.1153 39.1974 65.2039Z" fill="white"/>
<path d="M42.1376 77.1902C41.6228 76.352 41.0189 75.56 40.4447 74.7614C39.8719 74.0181 39.4381 73.1774 39.1643 72.2798C38.9102 71.3591 38.7518 70.4054 38.5868 69.4649C38.4218 68.5244 38.2568 67.508 38.1116 66.5279C37.9268 65.3993 37.7618 64.2641 37.6463 63.1223C37.6463 63.0959 37.6001 63.0959 37.6034 63.1223C37.676 64.1948 37.7585 65.2673 37.8674 66.3365C37.7684 65.9801 37.6694 65.6237 37.5605 65.2706C37.5579 65.2628 37.5522 65.2563 37.5448 65.2525C37.5374 65.2488 37.5288 65.2482 37.5209 65.2508C37.513 65.2535 37.5065 65.2591 37.5028 65.2665C37.4991 65.274 37.4985 65.2826 37.5011 65.2904C37.6265 65.759 37.7684 66.2243 37.9103 66.6896C37.9994 67.5113 38.1017 68.3396 38.2403 69.1514C38.4053 70.1414 38.5703 71.1116 38.8079 72.0752C39.0314 72.9854 39.4329 73.8423 39.9893 74.5964C40.6459 75.5071 41.3498 76.3828 42.098 77.2199C42.1178 77.243 42.1541 77.2199 42.1376 77.1902Z" fill="#263238"/>
<path d="M48.7707 71.7684C47.7807 72.6825 46.86 73.656 45.9261 74.6229C44.9922 75.5898 44.055 76.5501 43.1706 77.5599C43.1675 77.565 43.1662 77.5709 43.1669 77.5768C43.1676 77.5827 43.1703 77.5882 43.1745 77.5924C43.1787 77.5965 43.1842 77.5992 43.19 77.5999C43.1959 77.6006 43.2019 77.5993 43.2069 77.5962C44.2167 76.7085 45.1671 75.7548 46.1043 74.7945C47.0415 73.8342 47.9787 72.8706 48.84 71.8245C48.8422 71.8154 48.8417 71.806 48.8387 71.7971C48.8357 71.7883 48.8302 71.7806 48.823 71.7747C48.8158 71.7688 48.807 71.7651 48.7978 71.764C48.7885 71.7629 48.7792 71.7644 48.7707 71.7684Z" fill="#263238"/>
<path d="M46.025 67.4315C45.9128 67.1708 45.794 66.9134 45.6752 66.656C45.4112 66.095 45.1538 65.534 44.8832 64.9796C44.7479 64.6991 44.6126 64.4186 44.4806 64.1348C44.3849 63.6695 44.2958 63.2042 44.1506 62.7455C44.1506 62.7257 44.111 62.7455 44.1143 62.7455C44.1704 63.1283 44.2628 63.5045 44.3519 63.8807C43.9955 63.1316 43.6358 62.3858 43.2233 61.6664C43.2233 61.6466 43.1705 61.6664 43.1804 61.6862C43.6028 62.8214 44.1473 63.9137 44.6456 65.0192C44.8964 65.567 45.1571 66.1115 45.4145 66.6692C45.5432 66.9398 45.6719 67.2137 45.8072 67.481C45.9425 67.7483 46.1372 68.0453 46.2956 68.3357C46.2956 68.3588 46.355 68.3357 46.3418 68.3126C46.2263 68.0255 46.1471 67.7186 46.025 67.4315Z" fill="#263238"/>
<path d="M40.4746 43.0217C40.8046 43.1141 42.8176 42.8237 43.5337 44.3417C44.0782 45.4934 43.4314 46.3217 42.3193 46.7045C41.0917 47.1038 39.5308 46.6352 39.5308 46.6352C39.5539 47.9321 39.5803 49.6052 39.1579 49.8989C38.8279 50.1365 38.2471 49.7075 38.2471 49.7075C38.0095 50.7833 38.3725 53.0075 38.5969 53.4398C39.1249 54.4826 40.3756 55.8983 39.2272 57.3998C38.8765 57.738 38.4465 57.9829 37.9767 58.1121C37.5068 58.2412 37.0121 58.2505 36.5377 58.139C35.2177 57.8354 34.9075 56.8553 34.3828 56.5484C33.8581 56.2415 32.4028 56.4296 31.8748 55.6409C31.3468 54.8522 31.3666 53.915 31.129 53.5322C30.8914 53.1494 30.2842 53.1296 30.0301 52.2848C29.776 51.44 30.5944 51.0506 30.799 50.3807C30.9409 49.9121 30.5812 49.4138 30.9838 48.7307C31.5415 47.7902 32.7328 48.1829 33.3499 47.2226C33.835 46.4702 34.9735 43.6982 37.1449 42.9062C38.2293 42.5211 39.4195 42.5623 40.4746 43.0217Z" fill="#263238"/>
<path d="M35.3462 44.2559C34.91 44.8077 34.5119 45.3888 34.1549 45.995C33.9569 46.2854 33.7721 46.5824 33.5576 46.853C33.4545 46.9873 33.336 47.1091 33.2045 47.216C33.1765 47.2423 33.1441 47.2635 33.1088 47.2787C33.0757 47.2984 33.0402 47.314 33.0032 47.3249L32.7425 47.3909C32.376 47.4627 32.0136 47.5541 31.6568 47.6648C31.2906 47.7713 30.9688 47.9936 30.7394 48.2984C30.6317 48.4544 30.569 48.6371 30.5579 48.8264C30.5563 49.0152 30.5922 49.2026 30.6635 49.3775C30.8217 49.7008 30.9009 50.0571 30.8945 50.417C30.949 50.0574 30.908 49.6898 30.7757 49.3511C30.7207 49.1876 30.6983 49.0149 30.7097 48.8429C30.7298 48.6813 30.7937 48.5284 30.8945 48.4007C31.1166 48.1373 31.4117 47.9455 31.7426 47.8496C32.0955 47.7482 32.4535 47.6656 32.8151 47.6021C32.9042 47.579 32.9966 47.5559 33.089 47.5262C33.1879 47.4946 33.2798 47.4441 33.3596 47.3777C33.501 47.2581 33.6274 47.1218 33.7358 46.9718C33.9477 46.6871 34.1416 46.3895 34.3166 46.0808L34.8248 45.1568C34.9789 44.8455 35.1531 44.5445 35.3462 44.2559Z" fill="#263238"/>
<path d="M30.8352 53.2578C30.9242 53.4892 30.9657 53.7361 30.9573 53.9838C30.9573 54.2313 30.9903 54.4821 31.0167 54.7329C31.0438 54.9874 31.0968 55.2384 31.1751 55.482C31.2524 55.7388 31.3905 55.9731 31.5777 56.1651C32.0041 56.4816 32.5353 56.6233 33.0627 56.5611C33.3135 56.5611 33.561 56.5281 33.8085 56.5248C34.0546 56.5029 34.3025 56.5402 34.5312 56.6337C34.3148 56.4989 34.0666 56.4238 33.8118 56.4159C33.5577 56.3961 33.3069 56.4159 33.0627 56.3895C32.5916 56.4102 32.1271 56.2732 31.7427 56.0001C31.5807 55.8346 31.4598 55.6334 31.3896 55.4127C31.3076 55.1831 31.2457 54.9468 31.2048 54.7065C31.1553 54.4656 31.119 54.2181 31.0794 53.9706C31.0563 53.8485 31.0332 53.7231 31.0035 53.601C30.9794 53.4735 30.9212 53.3549 30.8352 53.2578Z" fill="#263238"/>
<path d="M39.1875 46.3643C39.7671 46.7159 40.4246 46.9188 41.1015 46.955C41.2674 46.9665 41.4339 46.9665 41.5998 46.955L41.8506 46.9319L42.0981 46.889C42.2664 46.8659 42.4281 46.8098 42.5931 46.7735C42.7581 46.7372 42.9231 46.6646 43.0848 46.6184C42.9374 46.7098 42.7854 46.7935 42.6294 46.8692C42.47 46.9403 42.3057 46.9999 42.1377 47.0474C41.7967 47.1442 41.4424 47.1854 41.0883 47.1695C40.7345 47.1535 40.3862 47.0765 40.0587 46.9418C39.7319 46.8108 39.4354 46.6142 39.1875 46.3643Z" fill="#263238"/>
<path d="M39.2702 46.0908C39.5762 46.7015 39.7654 47.3641 39.8279 48.0444C39.8636 48.3894 39.8379 48.738 39.752 49.074C39.7145 49.2444 39.6424 49.4052 39.5402 49.5465C39.4381 49.6879 39.3079 49.8067 39.158 49.8957C39.3946 49.6661 39.5479 49.3642 39.5936 49.0377C39.6465 48.7104 39.6553 48.3774 39.62 48.0477C39.5492 47.388 39.4324 46.7341 39.2702 46.0908Z" fill="#263238"/>
<path d="M38.4187 50.0439C38.4187 50.0439 37.2934 48.7074 36.6796 49.1232C36.0658 49.539 37.0096 51.5355 37.7851 51.7467C37.8834 51.7804 37.9875 51.7939 38.0911 51.7864C38.1947 51.7789 38.2958 51.7506 38.3882 51.7032C38.4806 51.6557 38.5626 51.5901 38.629 51.5103C38.6955 51.4304 38.7452 51.338 38.7751 51.2385L38.4187 50.0439Z" fill="#D3766A"/>
<path d="M36.96 49.6875C36.96 49.6875 36.96 49.7073 36.96 49.7106C37.2154 49.8093 37.4471 49.9609 37.6399 50.1553C37.8327 50.3498 37.9822 50.5829 38.0787 50.8392C38.0434 50.7864 37.9967 50.7421 37.942 50.7097C37.8874 50.6772 37.8262 50.6574 37.7629 50.6517C37.6996 50.646 37.6358 50.6546 37.5762 50.6767C37.5167 50.6989 37.4628 50.7341 37.4187 50.7798C37.4187 50.7798 37.4187 50.8128 37.4187 50.8062C37.5096 50.7682 37.6101 50.7592 37.7064 50.7804C37.8027 50.8017 37.8901 50.8522 37.9566 50.925C38.0665 51.0473 38.1627 51.1812 38.2437 51.3243C38.2734 51.3705 38.3559 51.3243 38.3328 51.2847C38.3097 50.5917 37.6959 49.6908 36.96 49.6875Z" fill="#263238"/>
<path d="M53.0574 56.9212C54.3081 55.8883 55.6446 53.7466 56.7699 53.3143C57.0432 53.1978 57.3468 53.1725 57.6357 53.242C57.9245 53.3116 58.1833 53.4723 58.3737 53.7004C58.3737 53.7004 58.6575 52.3969 59.7432 52.1725C60.3042 52.057 60.9774 52.849 60.9774 52.849C60.9774 52.849 61.2513 51.8161 62.2281 51.6742C63.0069 51.5653 63.5679 52.3738 63.5679 52.3738C63.5679 52.3738 64.2939 51.5026 65.1222 51.6445C66.8085 51.9316 68.4618 58.4821 66.3036 60.1024C65.3136 60.8581 64.9836 59.2345 64.9836 59.2345C64.9836 59.2345 64.8747 61.6798 63.5349 62.0527C62.1951 62.4256 61.908 60.2971 61.908 60.2971C61.908 60.2971 61.7826 62.6632 60.3537 62.9107C58.8654 63.1714 58.9446 60.9901 58.9446 60.9901C58.9446 60.9901 58.3242 62.6962 57.1857 62.6401C55.3047 62.5378 56.7204 58.3501 56.0142 56.9839L53.3346 57.5317L53.0574 56.9212Z" fill="#D3766A"/>
<path d="M54.922 54.9376C53.602 55.7263 51.127 54.0367 49.7509 54.6076C47.8897 55.3831 50.5495 57.9934 53.3512 57.538L56.011 56.9803L54.922 54.9376Z" fill="#D3766A"/>
<path d="M63.6901 52.4891C63.689 52.4872 63.6884 52.485 63.6881 52.4828C63.6878 52.4806 63.688 52.4783 63.6886 52.4762C63.6893 52.474 63.6903 52.472 63.6917 52.4703C63.6931 52.4685 63.6948 52.4671 63.6967 52.466C63.6987 52.4649 63.7008 52.4642 63.703 52.464C63.7053 52.4637 63.7075 52.4639 63.7096 52.4645C63.7118 52.4651 63.7138 52.4662 63.7155 52.4675C63.7173 52.4689 63.7187 52.4707 63.7198 52.4726C64.8338 54.5728 65.2837 56.9618 65.0101 59.3234C65.0101 59.396 64.8715 59.4125 64.8682 59.3234C64.8086 57.0003 64.4117 54.6981 63.6901 52.4891Z" fill="#263238"/>
<path d="M60.9841 52.7993C60.9841 52.7762 61.0171 52.7597 61.0303 52.7993C62.1193 54.8882 62.6638 57.7757 61.984 60.3596C61.9609 60.4487 61.852 60.5048 61.8685 60.3992C62.1919 58.6502 61.7101 54.8783 60.9841 52.7993Z" fill="#263238"/>
<path d="M58.8325 61.1618C59.3902 58.6604 59.0899 56.2349 58.4233 53.783C58.4233 53.7533 58.4596 53.7434 58.4728 53.783C59.1328 54.8951 59.3902 56.4989 59.4892 57.7661C59.6011 58.9399 59.4054 60.1227 58.9216 61.1981C58.9018 61.2245 58.8226 61.2146 58.8325 61.1618Z" fill="#263238"/>
</svg>
