<svg width="1211" height="1080" viewBox="0 0 1211 1080" fill="none" xmlns="http://www.w3.org/2000/svg">
<path d="M936.708 758.165L950.054 760.611L953.033 774.683L956.012 760.611L969.357 758.141L956.06 754.895L953.033 741.623L949.981 754.895L936.708 758.165Z" fill="#C7C7C7"/>
<path d="M386.212 682.211L399.557 684.682L402.536 698.754L405.515 684.682L418.86 682.211L405.588 678.966L402.536 665.693L399.509 678.966L386.212 682.211Z" fill="#C7C7C7"/>
<path d="M800.422 531.878L813.768 534.348L816.747 548.396L819.726 534.348L833.071 531.878L819.798 528.608L816.747 515.335L813.719 528.608L800.422 531.878Z" fill="#C7C7C7"/>
<path d="M1063.52 675.357L1070.98 676.738L1072.66 684.609L1074.33 676.738L1081.76 675.357L1074.35 673.54L1072.66 666.129L1070.96 673.54L1063.52 675.357Z" fill="#C7C7C7"/>
<path d="M497.648 974.474L505.084 975.854L506.755 983.726L508.426 975.854L515.886 974.474L508.45 972.657L506.755 965.246L505.06 972.657L497.648 974.474Z" fill="#C7C7C7"/>
<path d="M1045.29 321.527L1052.75 322.908L1054.42 330.755L1056.06 322.908L1063.52 321.503L1056.11 319.711L1054.42 312.275L1052.7 319.711L1045.29 321.527Z" fill="#C7C7C7"/>
<path d="M165.64 490.607L173.1 491.987L174.771 499.835L176.418 491.987L183.878 490.607L176.467 488.79L174.771 481.355L173.076 488.79L165.64 490.607Z" fill="#C7C7C7"/>
<path d="M205.652 890.697L213.112 892.078L214.783 899.925L216.43 892.078L223.89 890.697L216.478 888.881L214.783 881.445L213.063 888.881L205.652 890.697Z" fill="#C7C7C7"/>
<path d="M1016.51 520.64L1023.97 522.02L1025.62 529.867L1027.29 522.02L1034.75 520.64L1027.34 518.823L1025.62 511.388L1023.92 518.823L1016.51 520.64Z" fill="#C7C7C7"/>
<path d="M701.968 774.683L709.428 776.064L711.099 783.935L712.77 776.064L720.23 774.683L712.794 772.867L711.099 765.455L709.404 772.867L701.968 774.683Z" fill="#C7C7C7"/>
<path d="M430.607 143.462L438.067 144.842L439.738 152.689L441.409 144.842L448.845 143.462L441.434 141.645L439.738 134.209L438.043 141.645L430.607 143.462Z" fill="#C7C7C7"/>
<path d="M722.531 746.128L729.99 747.508L731.662 755.38L733.333 747.508L740.793 746.128L733.357 744.311L731.662 736.876L729.966 744.311L722.531 746.128Z" fill="#C7C7C7"/>
<path d="M479.992 991.477C480.527 991.533 481.023 991.786 481.383 992.186C481.743 992.587 481.942 993.106 481.942 993.644C481.942 994.183 481.743 994.702 481.383 995.102C481.023 995.502 480.527 995.755 479.992 995.812C479.456 995.755 478.961 995.502 478.601 995.102C478.241 994.702 478.042 994.183 478.042 993.644C478.042 993.106 478.241 992.587 478.601 992.186C478.961 991.786 479.456 991.533 479.992 991.477Z" fill="#C7C7C7"/>
<path d="M865.599 586.058C866.134 586.115 866.629 586.367 866.99 586.768C867.35 587.168 867.549 587.687 867.549 588.226C867.549 588.764 867.35 589.283 866.99 589.684C866.629 590.084 866.134 590.337 865.599 590.393C865.063 590.337 864.568 590.084 864.207 589.684C863.847 589.283 863.648 588.764 863.648 588.226C863.648 587.687 863.847 587.168 864.207 586.768C864.568 586.367 865.063 586.115 865.599 586.058Z" fill="#C7C7C7"/>
<path d="M681.163 768.168C681.735 768.168 682.283 768.395 682.687 768.799C683.092 769.204 683.319 769.752 683.319 770.324C683.319 770.895 683.092 771.444 682.687 771.848C682.283 772.252 681.735 772.479 681.163 772.479C680.591 772.479 680.043 772.252 679.639 771.848C679.235 771.444 679.008 770.895 679.008 770.324C679.008 769.752 679.235 769.204 679.639 768.799C680.043 768.395 680.591 768.168 681.163 768.168Z" fill="#C7C7C7"/>
<path d="M360.563 975.273C361.135 975.273 361.683 975.5 362.087 975.905C362.492 976.309 362.719 976.857 362.719 977.429C362.719 978.001 362.492 978.549 362.087 978.953C361.683 979.357 361.135 979.585 360.563 979.585C359.991 979.585 359.443 979.357 359.039 978.953C358.635 978.549 358.407 978.001 358.407 977.429C358.407 976.857 358.635 976.309 359.039 975.905C359.443 975.5 359.991 975.273 360.563 975.273Z" fill="#C7C7C7"/>
<path d="M1082.17 1003.9C1082.71 1003.96 1083.2 1004.21 1083.56 1004.61C1083.92 1005.01 1084.12 1005.53 1084.12 1006.07C1084.12 1006.61 1083.92 1007.13 1083.56 1007.53C1083.2 1007.93 1082.71 1008.18 1082.17 1008.24C1081.64 1008.18 1081.14 1007.93 1080.78 1007.53C1080.42 1007.13 1080.22 1006.61 1080.22 1006.07C1080.22 1005.53 1080.42 1005.01 1080.78 1004.61C1081.14 1004.21 1081.64 1003.96 1082.17 1003.9Z" fill="#C7C7C7"/>
<path d="M968.461 614.395C969.032 614.395 969.581 614.622 969.985 615.027C970.389 615.431 970.616 615.979 970.616 616.551C970.616 617.123 970.389 617.671 969.985 618.075C969.581 618.479 969.032 618.707 968.461 618.707C967.889 618.707 967.341 618.479 966.937 618.075C966.532 617.671 966.305 617.123 966.305 616.551C966.305 615.979 966.532 615.431 966.937 615.027C967.341 614.622 967.889 614.395 968.461 614.395Z" fill="#C7C7C7"/>
<path d="M534.148 952.603C534.553 952.603 534.941 952.764 535.227 953.05C535.513 953.336 535.674 953.724 535.674 954.129C535.674 954.534 535.513 954.922 535.227 955.208C534.941 955.494 534.553 955.655 534.148 955.655C533.743 955.655 533.355 955.494 533.069 955.208C532.783 954.922 532.622 954.534 532.622 954.129C532.622 953.724 532.783 953.336 533.069 953.05C533.355 952.764 533.743 952.603 534.148 952.603Z" fill="#C7C7C7"/>
<path d="M228.782 158.599C229.157 158.646 229.501 158.828 229.751 159.112C230.001 159.395 230.139 159.759 230.139 160.137C230.139 160.515 230.001 160.879 229.751 161.163C229.501 161.446 229.157 161.628 228.782 161.675C228.407 161.628 228.063 161.446 227.813 161.163C227.563 160.879 227.425 160.515 227.425 160.137C227.425 159.759 227.563 159.395 227.813 159.112C228.063 158.828 228.407 158.646 228.782 158.599Z" fill="#C7C7C7"/>
<path d="M818.636 650.096C819.041 650.096 819.429 650.256 819.715 650.543C820.001 650.829 820.162 651.217 820.162 651.622C820.162 652.026 820.001 652.414 819.715 652.7C819.429 652.987 819.041 653.147 818.636 653.147C818.231 653.147 817.843 652.987 817.557 652.7C817.271 652.414 817.11 652.026 817.11 651.622C817.11 651.217 817.271 650.829 817.557 650.543C817.843 650.256 818.231 650.096 818.636 650.096Z" fill="#C7C7C7"/>
<path d="M744.668 782.409C745.073 782.409 745.461 782.57 745.747 782.856C746.033 783.142 746.194 783.531 746.194 783.935C746.194 784.34 746.033 784.728 745.747 785.014C745.461 785.3 745.073 785.461 744.668 785.461C744.263 785.461 743.875 785.3 743.589 785.014C743.303 784.728 743.142 784.34 743.142 783.935C743.142 783.531 743.303 783.142 743.589 782.856C743.875 782.57 744.263 782.409 744.668 782.409Z" fill="#C7C7C7"/>
<path d="M623.689 756.615C624.064 756.662 624.408 756.845 624.658 757.128C624.908 757.411 625.046 757.776 625.046 758.153C625.046 758.531 624.908 758.895 624.658 759.179C624.408 759.462 624.064 759.644 623.689 759.691C623.314 759.644 622.97 759.462 622.72 759.179C622.47 758.895 622.332 758.531 622.332 758.153C622.332 757.776 622.47 757.411 622.72 757.128C622.97 756.845 623.314 756.662 623.689 756.615Z" fill="#C7C7C7"/>
<path d="M766.708 622.315C767.807 622.315 768.86 622.752 769.637 623.528C770.414 624.305 770.85 625.358 770.85 626.457C770.85 627.555 770.414 628.609 769.637 629.385C768.86 630.162 767.807 630.598 766.708 630.598C765.61 630.598 764.556 630.162 763.78 629.385C763.003 628.609 762.567 627.555 762.567 626.457C762.567 625.358 763.003 624.305 763.78 623.528C764.556 622.752 765.61 622.315 766.708 622.315Z" fill="#C7C7C7"/>
<path d="M554.614 203.769L567.959 206.24L570.938 220.287L573.917 206.24L587.262 203.769L573.966 200.524L570.938 187.227L567.886 200.524L554.614 203.769Z" fill="#C7C7C7"/>
<path d="M605.451 82.0155L612.911 83.396L614.582 91.2433L616.254 83.396L623.689 82.0155L616.278 80.199L614.582 72.7634L612.887 80.199L605.451 82.0155Z" fill="#C7C7C7"/>
<path d="M153.409 283.768C153.981 283.768 154.529 283.995 154.934 284.399C155.338 284.804 155.565 285.352 155.565 285.924C155.565 286.495 155.338 287.044 154.934 287.448C154.529 287.852 153.981 288.079 153.409 288.079C152.838 288.079 152.29 287.852 151.885 287.448C151.481 287.044 151.254 286.495 151.254 285.924C151.254 285.352 151.481 284.804 151.885 284.399C152.29 283.995 152.838 283.768 153.409 283.768Z" fill="#C7C7C7"/>
<path d="M187.366 857.055C187.901 857.112 188.397 857.365 188.757 857.765C189.117 858.165 189.316 858.685 189.316 859.223C189.316 859.761 189.117 860.281 188.757 860.681C188.397 861.081 187.901 861.334 187.366 861.391C186.83 861.334 186.335 861.081 185.975 860.681C185.615 860.281 185.416 859.761 185.416 859.223C185.416 858.685 185.615 858.165 185.975 857.765C186.335 857.365 186.83 857.112 187.366 857.055Z" fill="#C7C7C7"/>
<path d="M128.826 964.35C129.361 964.407 129.857 964.66 130.217 965.06C130.577 965.46 130.776 965.979 130.776 966.518C130.776 967.056 130.577 967.576 130.217 967.976C129.857 968.376 129.361 968.629 128.826 968.685C128.291 968.629 127.795 968.376 127.435 967.976C127.075 967.576 126.876 967.056 126.876 966.518C126.876 965.979 127.075 965.46 127.435 965.06C127.795 964.66 128.291 964.407 128.826 964.35Z" fill="#C7C7C7"/>
<path d="M239.536 464.982C240.071 465.039 240.566 465.292 240.927 465.692C241.287 466.092 241.486 466.611 241.486 467.15C241.486 467.688 241.287 468.208 240.927 468.608C240.566 469.008 240.071 469.261 239.536 469.318C239 469.261 238.505 469.008 238.145 468.608C237.784 468.208 237.585 467.688 237.585 467.15C237.585 466.611 237.784 466.092 238.145 465.692C238.505 465.292 239 465.039 239.536 464.982Z" fill="#C7C7C7"/>
<path d="M128.826 91.873C129.361 91.9297 129.857 92.1825 130.217 92.5828C130.577 92.983 130.776 93.5024 130.776 94.0407C130.776 94.5791 130.577 95.0985 130.217 95.4987C129.857 95.8989 129.361 96.1518 128.826 96.2084C128.291 96.1518 127.795 95.8989 127.435 95.4987C127.075 95.0985 126.876 94.5791 126.876 94.0407C126.876 93.5024 127.075 92.983 127.435 92.5828C127.795 92.1825 128.291 91.9297 128.826 91.873Z" fill="#C7C7C7"/>
<path d="M325.056 753.999C325.431 754.046 325.776 754.229 326.025 754.512C326.275 754.795 326.413 755.16 326.413 755.537C326.413 755.915 326.275 756.279 326.025 756.563C325.776 756.846 325.431 757.028 325.056 757.075C324.682 757.028 324.337 756.846 324.087 756.563C323.838 756.279 323.7 755.915 323.7 755.537C323.7 755.16 323.838 754.795 324.087 754.512C324.337 754.229 324.682 754.046 325.056 753.999Z" fill="#C7C7C7"/>
<path d="M647.619 950.012C648.023 950.012 648.411 950.173 648.698 950.459C648.984 950.745 649.144 951.133 649.144 951.538C649.144 951.942 648.984 952.33 648.698 952.617C648.411 952.903 648.023 953.063 647.619 953.063C647.214 953.063 646.826 952.903 646.54 952.617C646.254 952.33 646.093 951.942 646.093 951.538C646.093 951.133 646.254 950.745 646.54 950.459C646.826 950.173 647.214 950.012 647.619 950.012Z" fill="#C7C7C7"/>
<path d="M874.705 250.417C875.08 250.464 875.424 250.646 875.674 250.93C875.924 251.213 876.062 251.577 876.062 251.955C876.062 252.333 875.924 252.697 875.674 252.98C875.424 253.264 875.08 253.446 874.705 253.493C874.33 253.446 873.986 253.264 873.736 252.98C873.486 252.697 873.348 252.333 873.348 251.955C873.348 251.577 873.486 251.213 873.736 250.93C873.986 250.646 874.33 250.464 874.705 250.417Z" fill="#C7C7C7"/>
<path d="M598.476 156.783C598.881 156.783 599.269 156.943 599.555 157.23C599.841 157.516 600.002 157.904 600.002 158.309C600.002 158.713 599.841 159.101 599.555 159.388C599.269 159.674 598.881 159.834 598.476 159.834C598.071 159.834 597.683 159.674 597.397 159.388C597.111 159.101 596.95 158.713 596.95 158.309C596.95 157.904 597.111 157.516 597.397 157.23C597.683 156.943 598.071 156.783 598.476 156.783Z" fill="#C7C7C7"/>
<path d="M506.755 699.674C507.853 699.674 508.907 700.11 509.683 700.887C510.46 701.664 510.897 702.717 510.897 703.815C510.897 704.914 510.46 705.967 509.683 706.744C508.907 707.521 507.853 707.957 506.755 707.957C505.656 707.957 504.603 707.521 503.826 706.744C503.05 705.967 502.613 704.914 502.613 703.815C502.613 702.717 503.05 701.664 503.826 700.887C504.603 700.11 505.656 699.674 506.755 699.674Z" fill="#C7C7C7"/>
<path d="M1052.58 386.582C1053.62 386.662 1054.6 387.134 1055.32 387.904C1056.03 388.675 1056.43 389.686 1056.43 390.736C1056.43 391.786 1056.03 392.797 1055.32 393.567C1054.6 394.337 1053.62 394.809 1052.58 394.889C1051.53 394.809 1050.55 394.337 1049.84 393.567C1049.12 392.797 1048.73 391.786 1048.73 390.736C1048.73 389.686 1049.12 388.675 1049.84 387.904C1050.55 387.134 1051.53 386.662 1052.58 386.582Z" fill="#C7C7C7"/>
<path d="M204.586 749.858C205.685 749.858 206.738 750.294 207.515 751.071C208.291 751.847 208.728 752.901 208.728 753.999C208.728 755.098 208.291 756.151 207.515 756.928C206.738 757.705 205.685 758.141 204.586 758.141C203.488 758.141 202.434 757.705 201.658 756.928C200.881 756.151 200.445 755.098 200.445 753.999C200.445 752.901 200.881 751.847 201.658 751.071C202.434 750.294 203.488 749.858 204.586 749.858Z" fill="#C7C7C7"/>
<path d="M552.676 590.393L560.136 591.774L561.807 599.621L563.478 591.774L570.938 590.393L563.502 588.577L561.807 581.141L560.112 588.577L552.676 590.393Z" fill="#C7C7C7"/>
<path d="M711.099 966.457L718.559 967.838L720.23 975.685L721.877 967.838L729.337 966.433L721.925 964.641L720.23 957.205L718.51 964.641L711.099 966.457Z" fill="#C7C7C7"/>
<path d="M744.135 869.601C744.671 869.658 745.166 869.911 745.526 870.311C745.886 870.711 746.086 871.231 746.086 871.769C746.086 872.307 745.886 872.827 745.526 873.227C745.166 873.627 744.671 873.88 744.135 873.937C743.6 873.88 743.104 873.627 742.744 873.227C742.384 872.827 742.185 872.307 742.185 871.769C742.185 871.231 742.384 870.711 742.744 870.311C743.104 869.911 743.6 869.658 744.135 869.601Z" fill="#C7C7C7"/>
<path d="M828.324 812.103C828.859 812.16 829.355 812.413 829.715 812.813C830.075 813.213 830.274 813.732 830.274 814.271C830.274 814.809 830.075 815.329 829.715 815.729C829.355 816.129 828.859 816.382 828.324 816.438C827.788 816.382 827.293 816.129 826.933 815.729C826.573 815.329 826.374 814.809 826.374 814.271C826.374 813.732 826.573 813.213 826.933 812.813C827.293 812.413 827.788 812.16 828.324 812.103Z" fill="#C7C7C7"/>
<path d="M561.807 911.381L569.267 912.761L570.938 920.633L572.609 912.761L580.069 911.381L572.633 909.564L570.938 902.129L569.243 909.564L561.807 911.381Z" fill="#C7C7C7"/>
<path d="M868.771 215.177C869.307 215.234 869.802 215.486 870.162 215.887C870.522 216.287 870.722 216.806 870.722 217.345C870.722 217.883 870.522 218.402 870.162 218.803C869.802 219.203 869.307 219.456 868.771 219.512C868.236 219.456 867.74 219.203 867.38 218.803C867.02 218.402 866.821 217.883 866.821 217.345C866.821 216.806 867.02 216.287 867.38 215.887C867.74 215.486 868.236 215.234 868.771 215.177Z" fill="#C7C7C7"/>
<path d="M920.771 819.03C921.176 819.03 921.564 819.191 921.85 819.477C922.137 819.763 922.297 820.151 922.297 820.556C922.297 820.961 922.137 821.349 921.85 821.635C921.564 821.921 921.176 822.082 920.771 822.082C920.367 822.082 919.979 821.921 919.692 821.635C919.406 821.349 919.246 820.961 919.246 820.556C919.246 820.151 919.406 819.763 919.692 819.477C919.979 819.191 920.367 819.03 920.771 819.03Z" fill="#C7C7C7"/>
<path d="M270.101 558.956L277.561 560.336L279.208 568.183L280.879 560.336L288.339 558.956L280.928 557.139L279.208 549.704L277.513 557.139L270.101 558.956Z" fill="#C7C7C7"/>
<path d="M183.878 677.9C184.45 677.9 184.998 678.127 185.402 678.531C185.807 678.936 186.034 679.484 186.034 680.056C186.034 680.627 185.807 681.176 185.402 681.58C184.998 681.984 184.45 682.211 183.878 682.211C183.307 682.211 182.758 681.984 182.354 681.58C181.95 681.176 181.723 680.627 181.723 680.056C181.723 679.484 181.95 678.936 182.354 678.531C182.758 678.127 183.307 677.9 183.878 677.9Z" fill="#C7C7C7"/>
<path d="M481.978 518.702C482.55 518.702 483.098 518.929 483.502 519.333C483.906 519.738 484.133 520.286 484.133 520.858C484.133 521.429 483.906 521.978 483.502 522.382C483.098 522.786 482.55 523.013 481.978 523.013C481.406 523.013 480.858 522.786 480.454 522.382C480.049 521.978 479.822 521.429 479.822 520.858C479.822 520.286 480.049 519.738 480.454 519.333C480.858 518.929 481.406 518.702 481.978 518.702Z" fill="#C7C7C7"/>
<path d="M228.782 300.31C229.157 300.357 229.501 300.54 229.751 300.823C230.001 301.106 230.139 301.471 230.139 301.848C230.139 302.226 230.001 302.591 229.751 302.874C229.501 303.157 229.157 303.339 228.782 303.386C228.407 303.339 228.063 303.157 227.813 302.874C227.563 302.591 227.425 302.226 227.425 301.848C227.425 301.471 227.563 301.106 227.813 300.823C228.063 300.54 228.407 300.357 228.782 300.31Z" fill="#C7C7C7"/>
<path d="M209.188 286.19C210.286 286.19 211.34 286.626 212.117 287.403C212.893 288.18 213.33 289.233 213.33 290.332C213.33 291.43 212.893 292.484 212.117 293.26C211.34 294.037 210.286 294.473 209.188 294.473C208.09 294.473 207.036 294.037 206.259 293.26C205.483 292.484 205.046 291.43 205.046 290.332C205.046 289.233 205.483 288.18 206.259 287.403C207.036 286.626 208.09 286.19 209.188 286.19Z" fill="#C7C7C7"/>
<path d="M1056.57 103.305C1057.67 103.305 1058.73 103.741 1059.5 104.518C1060.28 105.295 1060.71 106.348 1060.71 107.447C1060.71 108.545 1060.28 109.598 1059.5 110.375C1058.73 111.152 1057.67 111.588 1056.57 111.588C1055.47 111.588 1054.42 111.152 1053.64 110.375C1052.87 109.598 1052.43 108.545 1052.43 107.447C1052.43 106.348 1052.87 105.295 1053.64 104.518C1054.42 103.741 1055.47 103.305 1056.57 103.305Z" fill="#C7C7C7"/>
</svg>
