<svg width="1573" height="59" viewBox="0 0 1573 59" fill="none" xmlns="http://www.w3.org/2000/svg">
<path d="M7.72173 29.5C7.72173 31.6251 5.99316 33.3478 3.86086 33.3478C1.72857 33.3478 0 31.6251 0 29.5C0 27.3749 1.72857 25.6522 3.86086 25.6522C5.99316 25.6522 7.72173 27.3749 7.72173 29.5Z" fill="#D9D9D9"/>
<path d="M61.7738 29.5001C61.7738 31.6252 60.0453 33.3479 57.913 33.3479C55.7807 33.3479 54.0521 31.6252 54.0521 29.5001C54.0521 27.375 55.7807 25.6523 57.913 25.6523C60.0453 25.6523 61.7738 27.375 61.7738 29.5001Z" fill="#D9D9D9"/>
<path d="M159.582 29.5C159.582 45.7924 146.33 59 129.982 59C113.635 59 100.382 45.7924 100.382 29.5C100.382 13.2076 113.635 0 129.982 0C146.33 0 159.582 13.2076 159.582 29.5Z" fill="#303030"/>
<path d="M129.982 7.69567L135.567 23.9341L151.861 29.5L135.567 35.0659L129.982 51.3044L124.398 35.0659L108.104 29.5L124.398 23.9341L129.982 7.69567Z" fill="url(#paint0_linear_54_94)"/>
<path d="M274.407 29.5C274.407 31.6251 272.679 33.3478 270.546 33.3478C268.414 33.3478 266.685 31.6251 266.685 29.5C266.685 27.3749 268.414 25.6522 270.546 25.6522C272.679 25.6522 274.407 27.3749 274.407 29.5Z" fill="#D9D9D9"/>
<path d="M328.459 29.5001C328.459 31.6252 326.731 33.3479 324.598 33.3479C322.466 33.3479 320.737 31.6252 320.737 29.5001C320.737 27.375 322.466 25.6523 324.598 25.6523C326.731 25.6523 328.459 27.375 328.459 29.5001Z" fill="#D9D9D9"/>
<path d="M382.511 29.5001C382.511 31.6252 380.783 33.3479 378.65 33.3479C376.518 33.3479 374.79 31.6252 374.79 29.5001C374.79 27.375 376.518 25.6523 378.65 25.6523C380.783 25.6523 382.511 27.375 382.511 29.5001Z" fill="#D9D9D9"/>
<path d="M431.416 29.5C431.416 31.6251 429.687 33.3478 427.555 33.3478C425.422 33.3478 423.694 31.6251 423.694 29.5C423.694 27.3749 425.422 25.6522 427.555 25.6522C429.687 25.6522 431.416 27.3749 431.416 29.5Z" fill="#D9D9D9"/>
<path d="M485.468 29.5001C485.468 31.6252 483.739 33.3479 481.607 33.3479C479.475 33.3479 477.746 31.6252 477.746 29.5001C477.746 27.375 479.475 25.6523 481.607 25.6523C483.739 25.6523 485.468 27.375 485.468 29.5001Z" fill="#D9D9D9"/>
<path d="M585.85 29.5C585.85 45.7924 572.598 59 556.25 59C539.903 59 526.65 45.7924 526.65 29.5C526.65 13.2076 539.903 0 556.25 0C572.598 0 585.85 13.2076 585.85 29.5Z" fill="#303030"/>
<path d="M556.25 7.69567L561.835 23.9341L578.128 29.5L561.835 35.0659L556.25 51.3044L550.666 35.0659L534.372 29.5L550.666 23.9341L556.25 7.69567Z" fill="url(#paint1_linear_54_94)"/>
<path d="M700.675 29.5C700.675 31.6251 698.946 33.3478 696.814 33.3478C694.682 33.3478 692.953 31.6251 692.953 29.5C692.953 27.3749 694.682 25.6522 696.814 25.6522C698.946 25.6522 700.675 27.3749 700.675 29.5Z" fill="#D9D9D9"/>
<path d="M788.188 29.5C788.188 45.7924 774.936 59 758.588 59C742.24 59 728.988 45.7924 728.988 29.5C728.988 13.2076 742.24 0 758.588 0C774.936 0 788.188 13.2076 788.188 29.5Z" fill="#303030"/>
<path d="M758.588 7.69567L764.173 23.9341L780.466 29.5L764.173 35.0659L758.588 51.3044L753.003 35.0659L736.71 29.5L753.003 23.9341L758.588 7.69567Z" fill="url(#paint2_linear_54_94)"/>
<path d="M903.013 29.5C903.013 31.6251 901.284 33.3478 899.152 33.3478C897.02 33.3478 895.291 31.6251 895.291 29.5C895.291 27.3749 897.02 25.6522 899.152 25.6522C901.284 25.6522 903.013 27.3749 903.013 29.5Z" fill="#D9D9D9"/>
<path d="M957.065 29.5001C957.065 31.6252 955.336 33.3479 953.204 33.3479C951.072 33.3479 949.343 31.6252 949.343 29.5001C949.343 27.375 951.072 25.6523 953.204 25.6523C955.336 25.6523 957.065 27.375 957.065 29.5001Z" fill="#D9D9D9"/>
<path d="M1054.87 29.5C1054.87 45.7924 1041.62 59 1025.27 59C1008.93 59 995.673 45.7924 995.673 29.5C995.673 13.2076 1008.93 0 1025.27 0C1041.62 0 1054.87 13.2076 1054.87 29.5Z" fill="#303030"/>
<path d="M1025.27 7.69567L1030.86 23.9341L1047.15 29.5L1030.86 35.0659L1025.27 51.3044L1019.69 35.0659L1003.4 29.5L1019.69 23.9341L1025.27 7.69567Z" fill="url(#paint3_linear_54_94)"/>
<path d="M1247.67 29.5C1247.67 31.6186 1245.95 33.336 1243.83 33.336C1241.7 33.336 1239.98 31.6186 1239.98 29.5C1239.98 27.3814 1241.7 25.664 1243.83 25.664C1245.95 25.664 1247.67 27.3814 1247.67 29.5Z" fill="#D9D9D9"/>
<path d="M1283.82 29.5C1283.82 31.6186 1282.1 33.336 1279.97 33.336C1277.85 33.336 1276.12 31.6186 1276.12 29.5C1276.12 27.3814 1277.85 25.664 1279.97 25.664C1282.1 25.664 1283.82 27.3814 1283.82 29.5Z" fill="#D9D9D9"/>
<path d="M1319.97 29.5C1319.97 31.6186 1318.25 33.336 1316.12 33.336C1313.99 33.336 1312.27 31.6186 1312.27 29.5C1312.27 27.3814 1313.99 25.664 1316.12 25.664C1318.25 25.664 1319.97 27.3814 1319.97 29.5Z" fill="#D9D9D9"/>
<path d="M1356.12 29.5C1356.12 31.6186 1354.39 33.336 1352.27 33.336C1350.14 33.336 1348.42 31.6186 1348.42 29.5C1348.42 27.3814 1350.14 25.664 1352.27 25.664C1354.39 25.664 1356.12 27.3814 1356.12 29.5Z" fill="#D9D9D9"/>
<path d="M1392.26 29.5C1392.26 31.6186 1390.54 33.336 1388.41 33.336C1386.29 33.336 1384.57 31.6186 1384.57 29.5C1384.57 27.3814 1386.29 25.664 1388.41 25.664C1390.54 25.664 1392.26 27.3814 1392.26 29.5Z" fill="#D9D9D9"/>
<path d="M1428.41 29.5C1428.41 31.6186 1426.69 33.336 1424.56 33.336C1422.44 33.336 1420.71 31.6186 1420.71 29.5C1420.71 27.3814 1422.44 25.664 1424.56 25.664C1426.69 25.664 1428.41 27.3814 1428.41 29.5Z" fill="#D9D9D9"/>
<path d="M1464.56 29.5C1464.56 31.6186 1462.83 33.336 1460.71 33.336C1458.58 33.336 1456.86 31.6186 1456.86 29.5C1456.86 27.3814 1458.58 25.664 1460.71 25.664C1462.83 25.664 1464.56 27.3814 1464.56 29.5Z" fill="#D9D9D9"/>
<path d="M1500.71 29.5C1500.71 31.6186 1498.98 33.336 1496.86 33.336C1494.73 33.336 1493.01 31.6186 1493.01 29.5C1493.01 27.3814 1494.73 25.664 1496.86 25.664C1498.98 25.664 1500.71 27.3814 1500.71 29.5Z" fill="#D9D9D9"/>
<path d="M1536.85 29.5C1536.85 31.6186 1535.13 33.336 1533 33.336C1530.88 33.336 1529.15 31.6186 1529.15 29.5C1529.15 27.3814 1530.88 25.664 1533 25.664C1535.13 25.664 1536.85 27.3814 1536.85 29.5Z" fill="#D9D9D9"/>
<path d="M1573 29.5C1573 31.6186 1571.28 33.336 1569.15 33.336C1567.03 33.336 1565.3 31.6186 1565.3 29.5C1565.3 27.3814 1567.03 25.664 1569.15 25.664C1571.28 25.664 1573 27.3814 1573 29.5Z" fill="#D9D9D9"/>
<circle cx="1175.5" cy="29.5" r="29.5" fill="#303030"/>
<path d="M1175.5 7.69574L1181.07 23.9342L1197.3 29.5001L1181.07 35.066L1175.5 51.3044L1169.93 35.066L1153.7 29.5001L1169.93 23.9342L1175.5 7.69574Z" fill="url(#paint4_linear_54_94)"/>
<defs>
<linearGradient id="paint0_linear_54_94" x1="-369.831" y1="-33.4676" x2="-365.007" y2="145.379" gradientUnits="userSpaceOnUse">
<stop stop-color="#355691"/>
<stop offset="1" stop-color="#79FFFD"/>
</linearGradient>
<linearGradient id="paint1_linear_54_94" x1="-369.831" y1="-33.4676" x2="-365.007" y2="145.379" gradientUnits="userSpaceOnUse">
<stop stop-color="#355691"/>
<stop offset="1" stop-color="#79FFFD"/>
</linearGradient>
<linearGradient id="paint2_linear_54_94" x1="-369.831" y1="-33.4676" x2="-365.007" y2="145.379" gradientUnits="userSpaceOnUse">
<stop stop-color="#355691"/>
<stop offset="1" stop-color="#79FFFD"/>
</linearGradient>
<linearGradient id="paint3_linear_54_94" x1="-369.831" y1="-33.4676" x2="-365.007" y2="145.379" gradientUnits="userSpaceOnUse">
<stop stop-color="#355691"/>
<stop offset="1" stop-color="#79FFFD"/>
</linearGradient>
<linearGradient id="paint4_linear_54_94" x1="1143.44" y1="-17.0411" x2="1206.14" y2="70.1622" gradientUnits="userSpaceOnUse">
<stop stop-color="#355691"/>
<stop offset="1" stop-color="#79FFFD"/>
</linearGradient>
</defs>
</svg>
